<?xml version="1.0" standalone="no"?>
<!DOCTYPE svg PUBLIC "-//W3C//DTD SVG 20010904//EN"
 "http://www.w3.org/TR/2001/REC-SVG-20010904/DTD/svg10.dtd">
<svg version="1.0" xmlns="http://www.w3.org/2000/svg"
 width="1668.000000pt" height="1800.000000pt" viewBox="0 0 1668.000000 1800.000000"
 preserveAspectRatio="xMidYMid meet">
<g transform="translate(0.000000,1800.000000) scale(0.100000,-0.100000)"
fill="#000000" stroke="none">
<path d="M8775 17674 c-460 -131 -725 -458 -821 -1014 l-19 -105 3 -260 c2
-143 4 -291 5 -330 l2 -70 -85 -2 c-228 -7 -583 -55 -1010 -139 -76 -15 -413
-95 -505 -119 -141 -38 -283 -78 -307 -87 -14 -5 -41 -13 -60 -18 -18 -5 -78
-25 -133 -45 -55 -20 -134 -48 -175 -62 -41 -14 -115 -43 -164 -64 -49 -22
-93 -39 -98 -39 -4 0 -38 -14 -75 -31 -38 -17 -86 -39 -108 -49 -219 -99 -436
-206 -565 -280 -36 -20 -111 -63 -168 -95 -313 -176 -840 -559 -1078 -785 -38
-36 -105 -99 -148 -140 -495 -468 -918 -1013 -1259 -1620 -127 -227 -320 -645
-401 -870 -32 -88 -48 -130 -69 -185 -16 -40 -115 -355 -155 -490 -99 -340
-149 -474 -240 -655 -214 -423 -333 -793 -384 -1190 l-13 -105 0 -270 1 -270
12 -110 c15 -129 38 -276 57 -360 8 -33 16 -73 20 -90 6 -30 38 -136 80 -270
21 -66 71 -198 117 -310 179 -439 514 -913 974 -1382 143 -145 195 -193 314
-293 30 -25 75 -63 100 -86 77 -69 307 -248 403 -314 29 -20 102 -70 163 -112
154 -106 328 -210 467 -279 l117 -59 0 -23 c0 -13 -20 -53 -44 -89 -131 -195
-396 -685 -491 -908 -20 -47 -45 -103 -55 -125 -56 -123 -186 -454 -235 -599
-18 -55 -51 -153 -73 -216 -57 -165 -108 -352 -177 -645 -26 -109 -68 -319
-90 -445 -8 -52 -20 -117 -25 -145 -5 -27 -12 -75 -15 -105 -4 -30 -13 -100
-20 -155 -22 -157 -25 -209 -16 -224 l9 -15 259 3 258 2 13 16 12 17 0 63 c0
189 78 663 165 1003 14 52 27 106 31 120 3 14 19 70 35 125 16 55 36 123 44
150 30 103 124 383 160 475 20 52 43 111 50 130 49 129 163 386 251 565 100
201 127 252 257 486 59 107 213 350 259 411 48 63 85 133 97 183 l12 50 -11
55 -10 55 -29 35 -28 35 -229 115 c-126 63 -284 149 -352 190 -68 41 -131 80
-140 85 -271 161 -771 558 -1011 804 -320 329 -437 476 -693 871 -164 253
-344 715 -404 1035 -93 498 -50 1079 110 1495 82 211 97 244 312 671 l53 105
36 140 c20 76 42 159 49 184 8 25 21 74 31 110 9 36 23 83 30 105 8 22 35 108
60 190 47 150 94 277 121 327 8 14 14 31 14 38 0 11 15 48 88 215 42 95 272
548 288 566 8 8 14 19 14 23 0 10 118 204 160 261 20 28 46 67 58 88 19 33
247 342 276 373 6 7 58 70 116 140 194 236 454 498 695 698 44 37 100 84 126
105 46 39 276 214 404 307 100 72 481 307 586 360 113 58 457 227 474 234 11
4 50 22 87 39 37 17 73 31 79 31 6 0 23 7 37 15 83 45 426 167 722 256 179 53
190 56 380 103 167 41 213 51 345 76 111 21 176 33 235 45 36 7 97 16 135 20
39 3 95 10 125 15 74 13 357 38 500 45 264 13 354 56 412 198 l17 42 0 55 c1
30 -5 91 -13 135 -8 44 -20 147 -26 230 l-13 150 7 150 c15 321 64 496 184
650 56 72 59 75 142 123 l65 37 111 -1 111 -1 52 -28 52 -29 34 -46 c19 -25
44 -73 57 -106 l23 -59 -1 -175 -1 -175 -18 -90 c-10 -49 -18 -130 -19 -180
l-1 -90 19 -30 c34 -53 70 -86 118 -111 l47 -24 59 0 60 0 53 24 c61 27 103
65 157 146 246 366 577 596 978 680 l97 20 104 0 104 0 77 -16 c97 -20 158
-46 199 -86 l33 -32 6 -32 6 -33 -24 -53 -25 -53 -59 -50 c-126 -107 -192
-140 -559 -285 -66 -26 -232 -100 -265 -119 -8 -4 -53 -27 -100 -51 -189 -97
-287 -181 -341 -295 l-29 -60 0 -51 c0 -28 3 -66 6 -83 l7 -32 43 -48 43 -48
63 -20 c35 -12 124 -35 198 -52 74 -18 155 -38 180 -45 25 -8 92 -28 150 -46
476 -144 1170 -515 1536 -819 17 -15 52 -44 79 -66 217 -177 895 -834 895
-868 0 -8 -9 -18 -20 -22 l-20 -6 -83 40 c-93 45 -268 105 -337 115 -25 4 -79
15 -120 24 l-75 17 -300 -1 -300 0 -115 -23 c-125 -25 -137 -28 -255 -67 -301
-100 -510 -218 -750 -425 -330 -284 -616 -737 -661 -1046 -8 -58 -29 -103 -48
-103 l-14 0 -7 33 c-25 126 -58 235 -105 342 -10 22 -29 65 -42 95 -200 452
-733 918 -1243 1088 -804 267 -1629 94 -2253 -472 -356 -323 -624 -803 -708
-1271 -7 -44 -19 -147 -25 -230 l-10 -150 6 -125 c38 -793 503 -1524 1217
-1914 174 -95 372 -162 643 -218 l100 -20 195 0 c107 0 215 5 240 10 25 6 81
17 124 26 l80 16 15 -15 16 -16 -41 -37 c-22 -20 -78 -68 -123 -107 -237 -200
-631 -678 -748 -907 l-28 -53 0 -70 0 -70 27 -53 c27 -51 44 -76 162 -223 89
-112 467 -484 586 -577 58 -45 110 -86 116 -91 5 -4 20 -14 33 -20 l22 -12 -3
-22 -3 -22 -65 -8 c-162 -19 -241 -30 -325 -42 -49 -8 -137 -21 -195 -30 -58
-9 -139 -22 -180 -30 -41 -7 -120 -21 -175 -30 -113 -18 -228 -37 -361 -59
-50 -9 -100 -16 -111 -16 -11 0 -46 -11 -78 -25 l-57 -26 -44 -47 c-24 -26
-44 -52 -44 -57 0 -6 -5 -16 -11 -22 -7 -7 -20 -36 -31 -65 l-19 -53 2 -1130
1 -1130 -14 -3 c-8 -1 -34 12 -59 30 -65 48 -85 58 -132 64 l-43 6 -50 -25
c-27 -14 -60 -40 -73 -57 l-24 -33 -1 -52 0 -52 27 -41 27 -41 127 -84 c135
-88 216 -137 348 -207 80 -43 95 -51 255 -140 47 -26 121 -65 165 -87 99 -49
817 -408 865 -433 211 -107 437 -225 445 -231 6 -4 49 -28 95 -52 70 -36 199
-110 349 -198 14 -8 54 -33 89 -56 35 -24 65 -43 67 -43 2 0 48 -29 102 -65
476 -312 806 -620 931 -870 l40 -80 17 -89 17 -89 -12 -63 c-33 -175 -128
-280 -325 -359 l-70 -28 -100 -13 c-288 -39 -640 8 -1120 147 -109 31 -357
119 -535 189 -220 87 -739 342 -936 461 -45 27 -84 49 -88 49 -3 0 -25 13 -48
29 -24 16 -101 67 -173 114 -330 217 -513 358 -811 623 -331 295 -734 712
-961 996 -29 37 -74 83 -99 102 l-46 35 -41 6 -42 6 -36 -15 c-21 -9 -53 -30
-72 -48 l-35 -33 -12 -45 -12 -45 10 -41 c17 -62 54 -115 226 -318 178 -211
280 -321 505 -546 321 -321 633 -594 879 -770 34 -25 95 -69 135 -98 84 -63
405 -276 456 -304 20 -10 43 -23 51 -28 162 -102 505 -281 640 -334 52 -21
133 -54 180 -73 134 -56 300 -124 355 -145 178 -67 632 -208 672 -208 9 0 39
-6 67 -14 49 -14 127 -28 335 -61 l95 -15 228 0 229 0 111 25 111 25 39 -11
c58 -15 197 -13 296 5 210 38 259 46 284 46 15 0 63 6 105 14 43 8 125 22 183
31 58 9 146 23 195 31 50 8 133 21 185 30 52 8 127 22 165 30 39 8 78 14 89
14 10 0 48 6 85 14 36 8 104 23 150 32 l83 18 44 -46 c123 -131 258 -199 482
-243 l83 -17 197 5 197 5 95 20 c381 83 779 333 993 624 6 9 21 18 32 20 l20
3 5 -62 c3 -34 10 -67 16 -73 l11 -11 224 0 c123 -1 229 -1 235 0 22 2 25 35
9 105 -8 39 -24 116 -35 171 -44 222 -48 240 -103 428 l-11 37 11 38 c6 20 27
82 47 137 33 92 55 176 91 345 34 162 45 485 25 699 -19 200 -36 286 -100 526
-77 284 -250 634 -462 933 -44 62 -85 118 -92 125 -6 6 -30 34 -54 61 l-42 49
0 22 0 23 73 37 c81 43 122 70 345 236 350 258 748 629 1021 949 82 97 321
405 321 414 0 3 26 43 58 88 32 46 68 101 81 123 331 560 504 1085 567 1715
l16 166 -5 349 -4 350 -12 90 c-44 338 -67 467 -133 744 -34 144 -47 185 -100
341 -22 63 -43 129 -48 145 -13 45 -56 157 -74 193 -9 17 -16 36 -16 43 0 6
-28 68 -61 138 -145 298 -188 381 -240 459 -16 24 -29 45 -29 48 0 7 -147 240
-184 292 -17 23 -65 90 -106 148 -66 93 -153 209 -265 354 -131 170 -476 641
-650 888 -61 87 -128 182 -150 212 -21 30 -68 96 -104 145 -37 50 -79 108 -95
130 -380 541 -868 1069 -1331 1441 -471 379 -1021 687 -1445 809 -69 20 -136
43 -148 51 l-24 16 17 19 c10 10 61 35 114 55 130 50 255 115 379 197 l104 68
85 87 c346 349 346 761 -1 1026 l-73 57 -99 43 c-479 211 -1185 84 -1587 -283
l-57 -53 -13 5 -14 5 -17 84 c-66 311 -284 530 -606 609 l-75 19 -135 -1 -135
0 -50 -15z m-541 -4350 c122 -18 243 -47 317 -75 30 -11 66 -24 80 -29 14 -4
34 -12 45 -17 10 -6 37 -18 59 -29 1028 -477 1398 -1813 766 -2759 -102 -153
-121 -177 -209 -267 -47 -48 -88 -91 -91 -95 -28 -39 -235 -192 -340 -253
-205 -118 -386 -185 -615 -226 l-91 -17 -200 -1 -200 -1 -105 19 c-687 119
-1210 552 -1475 1220 -77 195 -120 441 -119 676 l1 145 16 98 c36 226 145 535
239 682 7 11 36 56 64 100 276 436 732 731 1274 825 l105 18 189 1 189 1 101
-16z m4311 -4 c794 -129 1395 -706 1556 -1495 l20 -100 6 -175 5 -175 -10
-105 c-29 -303 -127 -593 -280 -830 -308 -475 -757 -776 -1292 -866 l-105 -17
-180 0 -180 1 -90 17 c-261 47 -510 137 -690 248 -324 199 -637 556 -773 882
-194 462 -213 865 -66 1351 l34 110 70 141 70 140 74 102 c310 429 697 674
1216 771 l95 18 200 1 200 1 120 -20z m2102 -1800 c81 -121 153 -228 158 -238
6 -9 31 -48 57 -87 251 -380 482 -871 585 -1245 32 -119 82 -328 88 -375 4
-27 11 -57 16 -66 5 -10 13 -59 19 -110 5 -52 16 -139 25 -193 46 -303 46
-862 0 -1156 -34 -211 -89 -443 -138 -580 -101 -280 -192 -481 -291 -645 -20
-33 -46 -77 -58 -98 -13 -21 -33 -53 -45 -70 -12 -18 -48 -70 -79 -117 -51
-75 -139 -185 -208 -260 -13 -14 -31 -41 -40 -62 l-17 -36 -212 -209 c-381
-375 -656 -608 -962 -816 -11 -8 -92 -62 -180 -122 l-159 -107 -16 10 c-8 5
-14 18 -12 28 2 11 6 356 9 768 l5 750 -18 80 -18 81 -35 58 c-18 32 -58 79
-87 105 l-53 48 -65 17 c-35 9 -82 17 -103 17 -21 0 -90 6 -153 15 -239 31
-377 45 -436 45 l-62 0 -11 14 c-12 14 -5 46 10 46 6 0 71 59 145 132 l135
132 112 145 111 146 111 185 c61 102 125 218 143 258 l32 72 0 74 0 73 -14 41
c-22 61 -77 142 -195 287 -182 224 -362 412 -480 503 -110 85 -152 124 -148
136 l4 11 239 0 239 0 60 13 c267 60 321 77 484 146 181 78 334 167 481 280
305 234 594 622 717 961 60 165 100 321 129 504 l17 104 -6 201 c-3 110 -11
221 -17 245 -6 24 -8 52 -5 62 l6 19 19 0 19 0 148 -220z m-4514 -710 c26
-175 132 -408 266 -585 25 -33 55 -69 67 -80 11 -11 28 -31 37 -45 l16 -25 -9
-14 -8 -15 -114 25 -113 24 -140 -1 -140 0 -80 -17 c-44 -10 -100 -24 -125
-32 -25 -7 -59 -16 -76 -20 l-31 -6 -7 16 -6 16 78 102 c162 212 242 372 298
596 25 99 38 124 63 119 l16 -3 8 -55z m350 -1055 c317 -56 672 -218 1010
-459 54 -39 111 -80 127 -91 273 -194 866 -774 937 -917 l15 -29 -16 -24 c-9
-14 -19 -25 -21 -25 -13 0 -317 -80 -370 -98 -54 -17 -141 -42 -260 -73 -22
-6 -58 -17 -80 -25 -22 -7 -80 -24 -130 -38 -49 -13 -146 -40 -215 -61 -139
-41 -199 -56 -310 -80 -41 -9 -102 -22 -135 -30 -63 -14 -160 -33 -305 -60
l-85 -15 -139 0 c-131 0 -237 9 -521 46 -112 14 -161 23 -325 59 -36 7 -99 21
-140 30 -41 9 -102 23 -135 30 -33 8 -110 26 -171 40 -119 28 -193 40 -518 89
-60 9 -119 19 -130 21 -12 3 -70 10 -131 15 -60 5 -157 13 -215 19 -58 5 -170
15 -250 22 l-145 11 -22 14 -23 14 0 28 c1 15 11 39 23 53 51 60 144 173 162
199 67 92 483 519 634 651 97 85 309 243 449 336 456 302 978 429 1435 348z
m2015 -1866 c14 -76 -614 -772 -773 -857 l-21 -10 -84 9 c-47 5 -128 16 -180
24 -52 8 -122 17 -155 20 -33 3 -91 10 -130 15 -38 5 -132 16 -207 25 -331 37
-406 45 -453 49 -60 6 -264 32 -355 46 -36 5 -116 10 -177 10 l-113 0 -77 -14
c-43 -8 -121 -22 -173 -30 -213 -34 -290 -46 -390 -61 -101 -16 -173 -28 -338
-60 -133 -26 -153 -20 -257 70 -33 28 -91 75 -130 105 -38 30 -99 81 -135 114
-36 34 -112 104 -170 156 -57 52 -145 133 -195 179 l-90 84 0 21 0 21 27 3
c15 2 78 -4 140 -13 62 -9 160 -23 218 -30 426 -55 630 -90 1005 -174 425 -96
457 -102 649 -126 66 -8 127 -17 135 -20 9 -2 104 -11 211 -20 l195 -15 110
11 c156 14 452 63 605 99 19 5 78 18 130 29 87 18 196 49 420 117 47 14 105
32 130 39 121 35 352 110 405 132 75 30 113 46 145 61 14 6 36 10 50 9 l25 -2
3 -16z m-2373 -850 c44 -5 143 -16 220 -25 330 -37 435 -49 649 -75 50 -6 131
-15 180 -20 50 -4 154 -15 231 -24 179 -20 394 -43 565 -60 74 -7 142 -16 150
-19 8 -3 56 -10 105 -16 154 -18 433 -54 577 -75 l98 -14 25 -17 c14 -9 38
-38 53 -63 l27 -46 6 -490 c3 -269 5 -1091 4 -1825 l-2 -1335 -37 -65 c-19
-36 -48 -91 -63 -122 l-27 -58 -16 0 -15 0 3 1863 3 1862 -33 39 -34 39 -95
13 c-52 7 -155 18 -229 24 -74 6 -157 15 -183 20 -26 6 -71 10 -100 10 -29 0
-79 4 -112 10 -33 5 -109 14 -170 19 -60 6 -150 15 -200 20 -49 6 -160 17
-245 26 -85 8 -202 20 -260 25 -58 6 -157 15 -220 20 -63 5 -142 14 -175 19
-33 6 -121 15 -195 22 -258 21 -315 27 -373 38 l-59 11 -46 -23 -47 -22 -23
-35 -23 -34 4 -2201 c2 -1210 6 -2208 8 -2219 l4 -18 -15 -9 -15 -10 -83 79
-83 79 0 2294 1 2294 28 40 c47 67 76 74 237 54z m-340 -9 c4 -6 -9 -36 -27
-68 l-33 -57 0 -105 0 -105 -80 -8 c-130 -12 -263 -27 -375 -43 -58 -7 -143
-19 -190 -24 -47 -6 -134 -17 -195 -25 -60 -8 -148 -19 -195 -24 -47 -6 -132
-17 -190 -26 -58 -8 -166 -21 -240 -30 -141 -16 -214 -26 -340 -46 -111 -17
-267 -37 -425 -53 -77 -8 -234 -29 -350 -47 -115 -17 -240 -34 -277 -36 l-68
-5 0 16 c0 42 33 173 48 190 26 28 64 44 123 51 30 4 86 13 124 20 39 7 122
21 185 30 63 9 156 22 205 30 50 8 137 21 195 30 58 9 141 22 185 30 44 8 100
17 125 20 25 3 65 9 90 15 25 5 86 16 135 25 50 9 122 23 160 30 69 14 166 28
315 46 41 4 97 13 125 18 27 5 104 17 170 26 66 9 149 23 185 31 36 8 79 14
95 14 17 0 62 6 100 15 39 8 115 22 170 31 55 9 125 22 155 29 71 16 87 17 95
5z m605 -410 c69 -6 163 -15 210 -20 201 -25 261 -31 370 -40 63 -5 140 -14
170 -19 30 -6 105 -12 165 -15 61 -3 133 -10 160 -15 48 -10 184 -22 445 -41
69 -5 161 -14 205 -19 44 -6 134 -16 200 -22 334 -31 382 -37 407 -49 l26 -13
8 -26 c3 -14 10 -834 15 -1821 5 -987 11 -1813 15 -1836 l6 -40 -12 -42 c-11
-44 -65 -115 -83 -109 l-10 3 -1 1566 -1 1566 -18 20 -19 20 -66 11 c-37 5
-128 12 -202 16 -74 3 -164 10 -200 15 -36 5 -103 10 -150 10 -47 0 -128 5
-180 10 -86 9 -332 24 -850 50 -102 5 -243 14 -315 20 -71 5 -224 12 -339 15
-115 3 -211 7 -213 8 -1 2 -4 171 -6 376 l-3 373 11 21 c6 12 22 27 35 35 l25
13 35 -6 c19 -3 91 -10 160 -15z m-657 -30 c-1 -22 0 -3754 1 -4015 l1 -100
-25 3 c-13 1 -38 15 -55 31 -58 54 -223 171 -346 246 -9 6 -36 25 -60 43 -45
34 -235 144 -529 306 -96 53 -191 105 -210 115 -35 20 -361 184 -687 345 -94
47 -180 89 -190 95 -61 33 -470 231 -477 231 -4 0 -21 11 -38 25 -16 14 -37
25 -46 25 -9 0 -75 31 -147 69 l-130 69 2 93 c1 52 2 538 2 1081 l0 987 20 10
c11 6 38 11 60 11 22 0 52 5 66 10 15 6 71 14 124 19 118 11 256 28 336 42 33
5 103 14 155 19 52 5 124 13 160 19 36 5 124 17 195 26 72 9 180 22 240 30 61
8 128 16 150 18 22 3 74 9 115 15 41 6 131 18 200 27 69 9 154 21 190 27 36 5
103 14 150 18 47 4 117 13 155 18 39 6 131 18 205 27 136 16 267 34 285 41 6
1 37 2 70 1 l60 -2 -2 -25z m765 -870 c276 -9 572 -25 767 -41 72 -6 209 -14
305 -19 305 -15 542 -30 650 -40 58 -5 161 -13 228 -17 l124 -6 14 -14 14 -15
-2 -221 -3 -222 -140 0 c-176 1 -799 22 -1050 36 -104 6 -307 13 -450 15 -143
3 -325 12 -404 20 -79 8 -192 14 -252 14 l-108 0 -8 13 c-4 6 -6 120 -5 252
l4 240 16 13 c9 6 24 9 35 6 10 -3 129 -9 265 -14z m337 -605 c44 -3 312 -11
595 -19 746 -21 1154 -38 1164 -46 l8 -8 -1 -218 c-1 -121 -6 -223 -11 -228
l-8 -8 -1193 11 -1194 12 -9 9 -10 10 2 113 c1 61 -1 163 -4 226 l-6 114 -9
-14 -9 -14 0 20 0 20 26 16 27 16 276 -4 c152 -2 312 -5 356 -8z m2516 -745
c77 -96 244 -319 266 -355 260 -421 347 -635 430 -1060 l18 -90 0 -235 0 -235
-18 -95 c-155 -821 -702 -1427 -1362 -1510 l-98 -13 -116 6 c-146 8 -186 18
-288 68 l-82 41 -35 38 c-48 54 -75 109 -82 173 l-6 54 11 52 c40 188 222 394
615 695 129 100 422 388 505 497 154 205 231 397 231 581 l0 73 -20 70 c-11
39 -28 81 -38 95 l-19 25 -36 3 -37 3 -1 12 c-1 7 -1 199 0 427 0 228 -3 507
-8 620 l-8 205 16 13 16 13 35 -38 c19 -21 69 -81 111 -133z m-791 152 l45 -7
-4 -220 c-2 -121 -6 -223 -10 -227 -9 -10 -629 -25 -1556 -38 -407 -6 -760
-13 -785 -16 l-46 -6 -11 14 -12 14 -2 236 c0 130 2 241 6 247 l6 11 1162 -1
c639 0 1182 -4 1207 -7z m36 -540 l10 -7 -5 -225 -6 -225 -200 -11 c-306 -18
-661 -34 -975 -44 -157 -5 -361 -14 -455 -19 -93 -6 -282 -13 -420 -16 -137
-3 -270 -10 -295 -15 l-45 -9 -12 12 -13 13 -2 241 -3 242 15 15 15 14 575 13
c1133 26 1798 34 1816 21z m0 -544 c4 -6 6 -107 5 -222 l-3 -211 -9 -11 -9
-11 -132 -11 c-126 -11 -291 -22 -633 -42 -82 -5 -208 -14 -280 -20 -220 -18
-393 -31 -565 -40 -91 -5 -214 -14 -275 -19 -60 -6 -177 -13 -260 -16 -82 -4
-169 -10 -193 -14 l-43 -9 -16 25 -16 24 7 85 c4 47 4 139 0 204 l-7 119 -8
-5 c-20 -12 -7 39 16 61 l24 25 113 1 c62 0 156 5 208 9 116 10 594 35 1195
62 419 19 563 24 722 26 l152 2 7 -12z m0 -529 c10 -16 12 -451 2 -471 l-9
-18 -87 0 c-48 0 -130 -5 -182 -10 -52 -6 -144 -14 -205 -20 -60 -5 -155 -14
-210 -19 -55 -6 -181 -18 -280 -26 -99 -9 -241 -22 -315 -30 -136 -14 -334
-32 -665 -59 -99 -8 -240 -20 -313 -26 l-133 -12 -16 14 -16 13 -4 -12 c-9
-25 -23 -13 -23 18 l0 31 15 -6 15 -5 0 20 0 20 -10 -6 -10 -6 0 16 0 16 10
-6 10 -6 0 159 0 160 -15 6 -15 5 0 27 0 27 26 23 25 24 82 1 c45 0 118 4 162
9 78 9 217 20 500 40 77 5 203 14 280 20 77 6 210 15 295 20 85 5 191 14 235
20 44 6 157 15 250 21 94 6 251 17 350 24 247 16 243 16 251 4z m-28 -560 l3
-16 -55 -38 -55 -38 -15 6 c-9 4 -23 4 -31 1 l-15 -6 0 -29 0 -28 -31 -17
c-17 -8 -40 -14 -50 -11 l-19 5 0 -18 c0 -24 -50 -80 -71 -80 -9 0 -24 -11
-33 -25 -9 -14 -22 -25 -30 -25 -7 0 -21 -9 -32 -21 l-19 -21 -28 5 -28 4 11
-11 c31 -31 0 -61 -55 -50 l-33 6 -6 -10 -6 -10 25 -6 c72 -18 -23 -106 -115
-106 -22 0 -71 -4 -108 -10 -69 -10 -129 -17 -572 -70 -484 -58 -585 -71 -625
-80 -22 -5 -56 -10 -75 -10 l-35 0 -40 77 c-22 41 -59 100 -82 130 -46 59 -57
95 -51 169 l3 49 -22 3 -23 3 0 -35 c0 -58 -55 -53 -67 7 -3 15 -10 30 -14 33
-14 8 -11 50 4 63 l14 11 144 10 c135 9 206 16 599 55 85 8 216 20 290 25 74
6 158 15 185 20 28 6 102 14 165 20 188 15 340 29 425 40 69 8 291 32 405 44
19 2 64 3 100 2 l65 -1 3 -16z m-704 -605 c9 -8 16 -19 16 -24 0 -11 -90 -90
-102 -90 -5 0 -7 -9 -3 -19 l6 -20 -31 -23 -31 -23 5 -22 6 -22 -15 -15 c-8
-8 -15 -21 -15 -28 0 -32 -68 -56 -71 -25 -1 6 -2 21 -3 32 l-1 20 -20 0 c-11
0 -26 4 -32 8 -16 10 -33 0 -33 -19 l0 -16 29 7 29 6 10 -30 10 -29 22 -7 21
-7 -3 -16 -3 -17 -27 3 c-29 4 -45 -12 -26 -24 7 -5 22 -8 33 -9 l20 0 -2 -38
c-1 -20 -7 -46 -13 -56 l-10 -19 -62 -6 c-35 -4 -90 -11 -123 -16 -74 -12
-200 -29 -280 -39 -62 -8 -144 -21 -300 -46 -185 -30 -241 -38 -285 -39 l-45
-1 3 35 c1 19 5 45 7 58 l5 22 57 0 56 0 19 17 c10 9 18 22 18 30 l0 14 -22
-6 c-13 -4 -27 -11 -33 -16 -16 -15 -32 -10 -38 13 l-6 22 -21 -19 c-29 -26
-35 -12 -15 37 l17 42 -16 12 -16 11 0 44 c0 56 9 68 51 75 l35 6 23 -46 23
-46 30 24 31 24 24 -15 23 -15 0 -24 c0 -30 13 -37 36 -19 l19 15 -18 14 -18
14 6 36 7 36 14 0 c8 0 14 -8 14 -18 0 -10 14 -31 30 -47 l31 -29 -4 -38 c-2
-21 -9 -44 -15 -50 -16 -16 -15 -43 2 -57 l14 -12 43 7 c24 3 54 13 67 21 l23
14 -6 20 -6 19 10 0 c6 0 11 -9 11 -19 0 -29 9 -31 85 -19 39 5 86 11 105 13
102 11 142 19 146 29 l4 11 68 -1 c107 -1 129 12 71 41 -37 20 -33 40 8 41 16
1 38 6 49 12 l19 11 -27 1 -27 0 -11 20 c-14 26 -24 25 -38 -2 l-11 -23 0 23
c-1 12 4 22 10 22 l11 0 -7 29 -6 29 21 4 c31 5 20 23 -12 20 l-28 -2 0 20 0
20 55 0 56 0 5 15 c9 22 29 18 41 -7 l11 -23 8 20 c4 11 14 25 22 31 l15 11
-19 5 c-10 2 -53 1 -94 -4 -41 -5 -95 -10 -120 -13 -98 -10 -310 -38 -395 -51
-49 -8 -119 -17 -153 -19 -35 -2 -78 -9 -95 -14 -18 -6 -75 -12 -127 -15 -53
-2 -108 -10 -122 -17 l-27 -12 -26 17 -25 16 0 30 0 30 28 6 c15 3 33 8 41 10
8 3 78 11 155 19 78 9 195 22 261 30 66 9 174 22 240 30 66 8 174 22 240 30
66 9 165 20 220 26 55 5 111 14 125 19 37 13 47 12 64 -6z m-504 -195 c0 -11
7 -22 15 -25 l15 -6 0 -29 0 -29 -15 0 -15 0 0 18 c0 37 -51 59 -64 27 -3 -8
-14 -15 -25 -15 l-21 0 -6 24 c-3 14 -3 30 1 35 l6 11 19 -10 c24 -13 23 -13
50 10 25 22 40 18 40 -11z m-210 -40 c0 -16 5 -29 10 -29 16 0 12 -21 -7 -43
l-18 -19 23 -18 22 -18 0 -26 c0 -14 -4 -26 -10 -26 -5 0 -10 7 -10 16 0 9 -9
18 -19 21 l-20 5 -3 27 -3 26 -23 3 -23 3 -6 30 -5 29 -18 0 c-27 0 -29 -9
-14 -46 20 -47 -2 -74 -34 -42 l-11 11 9 17 10 18 -15 12 c-8 7 -15 20 -15 30
l0 18 50 7 c58 8 70 3 70 -31 l0 -24 19 0 c23 0 36 16 21 25 -11 7 -14 48 -4
58 12 12 24 -4 24 -34z m-270 1 c0 -5 14 -10 30 -10 l30 0 0 -27 c0 -14 8 -35
17 -45 l17 -19 -14 -9 c-8 -6 -23 -10 -32 -10 l-18 0 0 16 c0 8 -13 29 -30 46
-29 29 -37 48 -23 61 10 10 23 8 23 -3z m580 -20 l14 -9 -18 -20 -19 -21 12
-14 c10 -12 6 -46 -6 -46 -3 0 -15 8 -28 18 l-23 18 19 12 18 12 -5 15 c-13
33 8 53 36 35z m-198 -25 c11 -14 28 -25 39 -25 l19 0 6 -26 7 -26 22 5 23 4
12 -25 11 -25 -11 -11 -11 -11 -18 20 c-22 25 -80 57 -92 50 l-8 -6 11 -24 11
-25 19 0 18 0 0 -15 c0 -8 -4 -15 -9 -15 -5 0 -16 7 -25 15 -19 20 -36 19 -52
-2 l-13 -18 -11 12 -12 11 22 12 22 12 -7 15 -6 16 12 8 12 7 -7 26 c-7 29
-30 34 -44 10 l-9 -16 -6 16 -6 16 14 0 15 0 0 20 0 20 16 0 c9 0 25 -11 36
-25z m-169 -85 c9 -11 17 -30 17 -42 l0 -21 -25 23 -26 24 -19 -12 c-26 -16
-40 -15 -40 3 l0 15 19 0 c10 0 21 7 25 15 8 21 28 19 49 -5z m536 -253 c6 -8
10 -34 9 -58 -1 -24 4 -74 12 -110 7 -37 11 -73 7 -81 l-5 -15 -84 -6 c-46 -3
-128 -13 -183 -22 -55 -8 -147 -22 -205 -30 -145 -20 -279 -41 -380 -60 -47
-8 -116 -20 -155 -25 -74 -10 -190 -33 -289 -55 -32 -7 -65 -11 -72 -8 l-14 5
73 77 74 77 22 50 c13 27 30 64 39 82 l15 32 36 0 c53 0 482 55 616 79 127 23
235 41 285 46 30 4 78 12 105 20 65 18 80 18 94 2z"/>
<path d="M8798 12146 c-185 -41 -346 -190 -418 -386 l-24 -65 0 -110 1 -110
18 -60 c57 -193 194 -337 385 -405 l65 -23 100 0 100 0 65 23 c82 29 148 73
227 151 l62 62 35 66 c19 36 44 100 55 141 l21 75 0 60 c0 84 -24 177 -70 270
l-39 80 -48 51 c-147 156 -342 222 -535 180z m205 -483 l57 -52 0 -41 0 -41
-57 -54 c-56 -52 -85 -66 -98 -45 -3 6 -15 10 -26 10 -11 0 -34 13 -50 29
l-29 29 5 15 c3 7 -1 20 -10 27 -8 7 -15 20 -15 30 0 10 7 23 15 30 9 7 13 20
10 28 l-5 14 42 39 42 38 31 -2 32 -2 56 -52z"/>
<path d="M13110 12140 c-191 -49 -342 -192 -411 -390 l-23 -65 0 -110 0 -110
21 -60 c12 -34 37 -90 55 -125 l33 -63 66 -68 66 -67 77 -37 c182 -87 329 -89
501 -4 l70 34 77 75 77 76 35 74 c19 41 42 110 51 154 l18 78 -7 62 c-16 154
-83 295 -189 398 l-59 57 -96 47 -96 47 -115 3 c-64 2 -132 -1 -151 -6z m140
-445 l11 7 14 -18 13 -18 35 1 36 1 11 -33 c6 -19 10 -58 8 -87 l-2 -53 -38
-36 -38 -36 -49 1 -48 1 -42 38 c-22 20 -41 44 -41 52 0 8 -6 24 -12 35 l-13
20 13 20 c6 11 12 26 12 34 0 8 18 33 41 56 l41 41 18 -16 19 -17 11 7z"/>
<path d="M14895 9445 c-237 -40 -385 -90 -561 -192 -222 -127 -394 -281 -536
-480 -27 -38 -128 -203 -128 -210 0 -2 -12 -27 -26 -56 -136 -276 -180 -706
-108 -1047 35 -166 147 -431 222 -526 12 -16 41 -54 65 -85 23 -31 55 -74 71
-95 155 -203 500 -424 718 -459 l36 -6 6 10 c4 5 -2 16 -12 23 -26 18 -52 71
-52 106 l0 30 -22 15 c-44 29 -80 68 -87 95 l-7 27 -20 3 c-11 2 -42 23 -68
47 l-48 43 7 22 7 22 -19 -6 -20 -6 -29 15 c-16 8 -33 15 -39 15 -23 1 -239
226 -251 262 -3 10 -16 24 -28 29 l-22 10 -27 57 c-14 31 -36 73 -47 93 -11
19 -21 48 -22 65 -1 16 -8 37 -16 46 -8 9 -11 21 -8 27 4 6 -1 22 -10 36 l-16
25 6 24 6 25 -16 9 -16 9 -5 49 c-2 27 -8 58 -13 69 -13 31 -22 102 -25 193
l-3 83 -12 14 -12 14 8 23 c4 13 7 32 5 44 -1 11 5 27 14 34 23 19 45 76 45
115 0 18 6 38 14 44 l13 11 7 62 c3 33 10 66 14 72 11 14 42 110 42 129 0 8 7
21 17 28 9 8 25 33 35 57 l19 42 38 25 38 24 7 27 c4 16 23 45 42 66 19 21 34
43 34 49 0 6 14 25 30 42 17 18 42 44 56 59 14 15 38 30 55 33 l30 7 27 36
c45 60 90 98 133 112 22 8 45 22 50 32 5 10 19 18 31 18 11 0 27 8 34 18 l14
17 10 -15 10 -15 13 15 c19 25 127 60 187 61 17 1 64 16 98 32 l22 10 26 -14
26 -13 12 15 11 16 45 6 c25 3 66 11 93 16 l47 10 25 -11 25 -11 28 20 27 20
48 5 49 6 14 21 c9 12 33 30 55 41 47 25 47 23 3 50 -121 71 -341 97 -539 65z"/>
<path d="M10298 6390 l-18 -11 0 -49 0 -49 13 -8 c12 -8 141 -23 372 -43 l129
-12 28 -14 c15 -8 44 -14 66 -14 44 0 56 -8 41 -26 l-10 -12 44 -26 c24 -14
59 -28 78 -32 19 -3 43 -9 54 -14 11 -5 45 -13 76 -18 l55 -8 16 9 15 10 48
-16 48 -15 24 9 c14 5 29 6 35 3 6 -4 29 -8 51 -9 l40 -3 14 -18 13 -18 43 11
c23 7 67 15 97 19 l55 7 11 15 c5 8 30 18 55 23 24 6 62 14 84 19 22 5 64 9
93 10 59 0 86 11 102 39 l10 19 -11 31 -11 31 -26 5 c-15 3 -40 10 -57 16 -16
6 -68 13 -114 16 l-84 6 -4 18 -5 19 -12 -8 c-6 -4 -65 -5 -131 -3 l-120 3 -7
12 c-4 6 -8 18 -8 26 l1 15 10 -17 10 -18 42 1 c23 0 51 4 61 8 l20 8 -10 6
c-11 6 -128 27 -155 27 l-17 0 -5 -21 -6 -21 -13 4 c-7 3 -13 11 -13 19 0 19
-46 33 -81 25 l-29 -8 18 -12 c28 -21 20 -26 -45 -26 l-61 0 17 19 c21 23 17
26 -61 42 l-62 13 -8 -8 c-5 -5 -2 -11 5 -13 40 -15 -9 -21 -180 -22 -196 -1
-210 -3 -190 -23 l11 -11 131 1 131 2 115 -15 c63 -8 159 -15 212 -15 l97 0
40 -15 40 -14 85 -1 86 0 12 -12 11 -11 110 -5 109 -4 5 -27 c3 -14 3 -38 0
-53 l-5 -28 -37 -1 c-40 -2 -36 -2 -109 17 -29 8 -92 14 -140 14 -48 0 -125 5
-172 11 -178 21 -379 41 -487 48 l-112 7 -18 16 -18 15 -60 -1 c-90 -3 -116
20 -83 74 l12 20 -9 9 c-11 11 -135 26 -290 36 l-90 5 -17 -10z"/>
<path d="M12165 6187 c-4 -14 -5 -36 -3 -48 l3 -24 20 0 20 0 14 29 14 29 -10
16 c-6 9 -20 17 -31 19 l-21 3 -6 -24z"/>
<path d="M12294 6186 c-3 -8 -4 -29 -2 -48 l3 -33 25 0 25 0 3 33 c5 49 -39
88 -54 48z"/>
<path d="M12522 6178 c-7 -7 -12 -18 -12 -26 l0 -14 14 5 c8 3 20 -1 26 -8
l12 -15 -16 -5 c-9 -3 -23 -7 -31 -10 l-16 -5 17 -25 16 -25 24 0 23 0 15 22
c19 27 20 58 4 93 l-11 25 -27 0 c-14 0 -31 -5 -38 -12z"/>
<path d="M8930 6199 c-68 -11 -287 -35 -485 -54 -82 -8 -179 -19 -215 -25 -35
-6 -73 -9 -83 -6 -10 2 -59 -3 -110 -11 -51 -8 -119 -17 -153 -18 -69 -3 -329
-31 -420 -45 -34 -6 -76 -10 -93 -10 -18 0 -54 -9 -81 -21 l-48 -21 -40 -46
c-57 -69 -92 -137 -114 -225 l-20 -78 4 -769 3 -769 12 -12 12 -12 13 29 12
29 6 795 5 795 45 79 c25 43 62 95 82 116 l38 37 42 12 c42 11 212 31 448 51
63 6 130 12 148 16 18 3 99 11 180 19 81 8 215 21 297 30 83 8 206 19 275 25
69 5 149 14 179 20 29 5 85 10 123 10 l69 0 37 -19 c69 -36 148 -144 200 -273
7 -16 16 -28 21 -28 l10 0 -6 38 c-3 20 -9 42 -13 47 -4 6 -10 24 -14 40 -17
73 -122 202 -194 239 -41 21 -103 27 -172 15z"/>
<path d="M9230 4998 c0 -35 5 -70 10 -78 l10 -15 0 78 0 77 -10 0 -10 0 0 -62z"/>
<path d="M9226 4774 c-11 -87 -4 -164 15 -164 l9 0 0 105 c0 109 -13 140 -24
59z"/>
<path d="M9230 4415 l0 -75 10 0 10 0 0 75 0 75 -10 0 -10 0 0 -75z"/>
<path d="M10248 5473 c4 -193 7 -208 35 -197 l17 6 0 189 0 189 -27 0 -28 0 3
-187z"/>
<path d="M10478 5629 c-23 -13 -23 -36 1 -75 l18 -30 -11 -16 -12 -16 3 -92 2
-92 12 -14 c6 -8 26 -14 45 -14 l33 0 15 21 14 21 11 -21 c14 -25 43 -27 61
-6 l13 16 20 -22 19 -21 22 7 c11 4 38 7 59 6 21 -1 42 1 48 5 l10 6 -12 14
-11 14 16 0 16 0 0 -20 c0 -11 3 -20 8 -21 4 0 59 -2 122 -5 63 -2 143 -5 177
-8 35 -2 65 0 68 4 l6 9 24 -11 25 -11 25 11 24 11 9 -15 9 -16 18 3 c20 4 31
21 40 62 l6 28 10 -7 11 -6 -6 -33 -7 -33 12 -8 c6 -4 35 -6 63 -5 71 1 66 2
221 -4 182 -7 290 -12 290 -15 0 0 33 -3 72 -5 l73 -4 6 10 6 10 13 -11 13
-11 126 -4 127 -5 6 16 5 15 -16 18 c-9 10 -16 28 -16 40 l0 22 -27 23 -28 24
14 26 c15 27 35 34 46 15 l7 -10 -21 -6 c-27 -7 -27 -24 -1 -41 l20 -12 10 25
10 26 27 -3 28 -3 3 23 3 22 -30 0 -31 0 0 40 0 41 -13 5 c-8 3 -72 8 -143 13
l-129 8 -17 -9 -17 -8 -6 10 c-3 6 -18 10 -33 10 -38 -1 -207 8 -207 10 0 3
-132 11 -260 15 -126 5 -209 11 -310 24 -44 5 -168 12 -275 16 -107 3 -211 8
-230 9 -19 2 -84 6 -145 10 -60 4 -128 9 -150 11 -22 3 -48 0 -57 -6z m596
-94 c44 -19 47 -30 5 -21 l-32 6 -13 -11 c-15 -13 -7 -39 12 -39 l14 0 0 -25
0 -25 24 -6 c14 -3 30 -3 35 1 18 11 12 37 -9 42 -21 6 -26 18 -11 27 5 3 14
-1 21 -9 l12 -15 18 10 19 10 6 -10 c3 -6 -1 -13 -9 -16 -22 -8 -20 -36 4 -57
l21 -17 -11 -19 -10 -19 14 -11 c7 -6 21 -9 30 -5 l16 6 0 -11 c0 -13 -45 -25
-65 -17 l-15 5 0 46 0 45 -15 0 c-9 0 -18 -6 -21 -14 -3 -8 -12 -17 -21 -20
l-15 -6 -24 22 c-13 13 -24 34 -24 47 l0 24 -30 -6 -29 -6 -7 11 -7 11 21 16
22 16 -6 22 -6 21 24 5 c12 2 24 5 24 6 1 0 18 -6 38 -14z m331 -45 c8 -26 -1
-40 -26 -40 l-19 0 0 23 c0 40 34 53 45 17z m165 -14 l0 -25 21 -6 c11 -4 24
-18 29 -31 5 -13 16 -24 24 -24 8 0 17 -9 21 -19 3 -10 15 -21 25 -24 l20 -5
0 -21 c0 -12 -4 -21 -10 -21 -5 0 -10 9 -10 20 l0 20 -27 6 c-15 4 -45 24 -67
45 -37 36 -56 42 -56 17 0 -6 8 -16 17 -23 l17 -12 -21 -12 -21 -11 5 -19 c3
-10 0 -22 -6 -26 l-11 -6 -7 17 c-3 9 -1 26 6 37 l13 19 -11 11 c-6 6 -11 23
-11 38 l0 27 15 6 c8 3 15 15 15 26 l0 20 15 0 15 0 0 -24z m451 2 c1 -7 0
-21 0 -31 -1 -9 5 -20 13 -23 l16 -6 0 -30 0 -29 18 3 17 3 0 25 0 25 19 3
c10 2 23 -1 28 -6 l10 -10 -21 -11 c-22 -12 -29 -41 -9 -41 6 0 19 7 29 16
l17 16 12 -22 12 -22 19 18 20 18 9 -14 c12 -19 3 -30 -21 -30 l-21 0 4 -12
c3 -7 15 -18 27 -24 l23 -12 -11 -6 c-5 -4 -27 -6 -48 -6 -21 1 -45 1 -53 0
-8 0 -33 3 -55 8 l-40 8 2 37 2 37 -9 0 c-6 0 -10 8 -10 19 0 10 -7 24 -15 31
-15 13 -21 61 -8 73 10 11 23 8 24 -5z m-1147 -33 l-6 -25 26 -10 26 -9 -6
-16 c-4 -8 1 -26 10 -40 9 -13 16 -29 16 -35 0 -18 -18 -11 -25 10 -3 11 -13
20 -21 20 l-14 0 6 24 6 24 -12 7 -11 7 -19 -17 -18 -17 -11 21 c-15 27 -14
29 12 33 l22 3 3 23 c2 12 8 22 13 22 l9 0 -6 -25z m816 6 c0 -6 19 -9 43 -8
l42 2 0 -15 0 -15 -27 0 c-14 0 -29 -3 -33 -6 -11 -11 -55 15 -55 34 l0 17 15
0 c8 0 15 -4 15 -9z m-450 -37 l0 -24 15 0 c16 0 21 -25 7 -34 -5 -3 -18 2
-30 10 l-22 15 0 28 c0 15 3 31 6 34 12 11 24 -3 24 -29z m-246 0 l16 -15 -6
-27 c-13 -52 -34 -53 -34 -1 l0 29 -15 0 -14 0 5 15 c8 19 28 19 48 -1z m434
-34 l12 -20 -24 0 -25 0 -3 -27 c-2 -14 -9 -28 -15 -31 l-13 -4 0 27 c0 56 44
93 68 55z m570 -16 c28 -8 29 -30 1 -37 l-21 -6 7 -20 6 -21 -16 0 -15 0 6 24
6 24 -21 7 c-11 3 -25 4 -31 0 -5 -3 -18 -2 -27 4 l-18 9 25 6 c23 5 59 12 70
15 3 0 15 -2 28 -5z m351 -30 c2 -10 12 -27 22 -37 19 -18 26 -47 11 -47 -13
0 -32 23 -32 38 0 7 -7 20 -15 28 -8 9 -15 22 -15 31 l0 15 13 -4 c6 -3 14
-13 16 -24z"/>
<path d="M10249 5053 c-1 -4 -1 -89 -1 -187 l1 -179 10 -10 11 -11 13 12 12
13 0 182 0 182 -22 3 c-13 2 -23 0 -24 -5z"/>
<path d="M10483 5028 l-10 -13 2 -155 c1 -186 11 -208 71 -165 12 8 24 11 28
8 3 -4 43 -7 89 -8 l82 -2 13 10 12 10 -5 18 -6 19 15 0 16 0 -3 -22 -2 -23
45 -2 c259 -12 270 -10 270 27 0 11 5 20 10 20 6 0 10 11 10 25 0 14 -5 25
-11 25 -23 0 -49 -22 -49 -40 l0 -20 -26 0 -26 0 32 40 c17 22 36 42 41 45 5
4 9 15 9 26 l0 21 13 -4 c6 -3 13 -14 15 -25 2 -12 12 -29 23 -39 10 -9 19
-23 19 -31 l0 -13 25 0 25 0 0 14 c0 22 19 30 26 11 l6 -16 -17 -19 -18 -20
-50 6 -49 7 4 -24 3 -24 60 0 c33 0 72 -4 86 -8 l26 -8 14 14 15 14 12 -14 c7
-7 18 -10 24 -7 16 10 111 12 129 3 l16 -8 31 8 c17 5 33 7 36 4 6 -6 106 -9
604 -16 l303 -5 6 14 c3 8 -1 21 -8 30 l-13 15 -18 -4 c-24 -7 -23 9 2 30 22
19 26 53 9 70 -6 6 -8 16 -4 23 l7 11 13 -11 c8 -6 24 -10 37 -8 l23 3 3 18 3
17 -15 0 c-20 0 -58 41 -52 56 2 6 -2 20 -9 31 l-13 19 -219 2 c-120 2 -299 5
-398 8 -99 2 -270 6 -380 9 -110 2 -209 7 -220 10 -11 3 -27 1 -35 -5 l-15 -9
11 -18 c6 -9 18 -21 28 -27 l19 -11 4 13 c7 19 41 14 64 -9 l20 -20 -6 -20 -7
-20 21 -6 c26 -7 26 -15 3 -36 -25 -23 -32 -21 -32 8 0 35 -19 31 -26 -5 l-6
-30 -14 0 -14 0 0 25 0 26 -22 8 -23 9 -9 -9 -10 -9 12 -12 c18 -18 14 -38 -7
-38 l-19 0 -7 30 -7 30 -15 0 -15 0 5 25 4 26 -20 14 -20 14 7 18 7 18 11 -20
c16 -29 16 -29 33 -15 19 16 19 49 0 56 -8 4 -22 1 -29 -5 l-14 -12 -7 11 -7
11 -86 -1 c-96 -2 -353 7 -448 16 l-61 5 -10 -13z m559 -65 c10 -9 18 -22 18
-28 0 -7 7 -18 15 -25 23 -19 18 -30 -14 -30 -31 0 -49 14 -31 25 5 3 10 13
10 21 l0 14 -30 0 c-34 0 -38 7 -12 26 22 17 22 17 44 -3z m588 -35 c0 -4 -4
-10 -10 -13 -5 -3 -10 -13 -10 -21 l0 -14 23 0 c13 0 28 -5 34 -11 l11 -11 20
11 c29 15 42 14 49 -6 4 -9 15 -25 25 -35 l18 -18 -6 -15 c-9 -23 -29 -12 -32
18 -2 15 -6 27 -10 27 -4 0 -18 3 -31 7 l-23 6 7 -24 c4 -13 18 -38 31 -56
l24 -32 -10 -6 c-6 -3 -19 -3 -30 0 l-21 7 3 26 3 27 -15 0 -15 0 -3 -33 -3
-33 -17 3 -17 3 3 27 3 26 -17 10 -17 9 7 11 7 12 20 -13 20 -12 9 15 c13 20
6 27 -40 34 l-40 6 0 22 c0 11 8 27 18 34 l17 13 -19 7 -20 8 -4 -12 c-2 -7
-10 -12 -18 -12 l-14 0 0 -26 c0 -14 7 -32 15 -40 8 -9 15 -27 15 -41 l0 -25
-12 4 c-7 3 -14 17 -16 32 -2 15 -10 30 -18 33 -17 6 -19 44 -2 61 l11 11 -16
7 c-23 9 -21 24 3 24 11 0 20 -4 20 -10 0 -16 27 -12 34 6 l6 15 25 -18 c13
-10 25 -21 25 -25z m-810 2 l6 -25 22 -3 22 -3 0 -40 0 -39 -14 0 c-8 0 -18
-9 -21 -20 -8 -24 -22 -25 -46 -4 l-17 16 -16 -29 -15 -28 -7 33 -6 32 -14 0
c-8 0 -14 -7 -14 -15 0 -17 -16 -20 -25 -5 -3 6 1 13 9 16 20 8 21 38 1 54 -8
7 -15 17 -15 22 l0 10 21 -5 c12 -3 29 -1 39 6 l18 11 16 -13 16 -13 6 16 c3
9 4 25 1 37 l-5 20 16 -3 c9 -2 19 -14 22 -28z m99 14 l-13 -16 19 -14 c23
-17 37 -18 53 -2 l12 12 0 -12 c0 -7 0 -15 0 -19 0 -4 -10 -8 -23 -8 l-22 0
-3 -42 -3 -43 -15 0 -14 0 0 -20 0 -20 -15 0 -15 0 0 20 c0 11 7 23 15 26 l15
6 0 43 0 43 -15 6 -15 5 0 26 0 25 26 0 26 0 -13 -16z m776 6 l6 -10 20 13 20
12 9 -15 9 -15 22 13 22 14 6 -9 c3 -5 38 -10 76 -10 39 -1 75 -2 80 -4 6 -1
17 1 26 5 8 4 28 2 43 -3 l27 -11 -11 -20 -11 -20 -25 17 -26 17 -19 -12 -18
-12 -31 6 -30 7 0 -11 c0 -18 24 -29 68 -30 63 -2 85 -31 46 -63 l-16 -13 5
-33 c6 -36 -2 -47 -28 -37 l-16 7 6 28 6 28 -26 7 -26 7 -26 -12 -25 -12 -24
16 c-13 8 -24 24 -24 35 l0 20 -16 0 -15 0 3 27 3 27 -38 8 -38 8 -19 -10 -18
-10 -12 15 c-7 8 -10 22 -6 30 6 17 32 20 41 5z m546 -10 l68 0 6 -11 c11 -18
0 -20 -91 -22 l-89 -2 -4 -20 c-2 -11 -9 -24 -17 -28 -8 -4 -14 -19 -14 -32
l0 -25 -20 0 -20 0 0 35 0 35 25 0 25 0 0 19 c0 10 -7 21 -15 25 -8 3 -15 11
-15 17 l0 11 24 -6 24 -6 12 16 13 15 11 -11 c5 -5 40 -10 77 -10z m-828 -39
l8 -33 17 7 c30 11 37 10 37 -5 0 -8 -6 -15 -12 -14 -7 1 -23 2 -36 3 l-23 1
-17 30 c-18 30 -15 54 6 47 6 -2 15 -18 20 -36z m-385 -60 l4 -12 -21 -6 -21
-5 6 -34 6 -34 -10 0 c-6 0 -13 13 -17 30 l-7 30 16 16 c9 8 16 20 16 26 0 13
23 5 28 -11z m1142 -7 c0 -8 8 -23 18 -33 51 -57 52 -61 12 -61 l-30 0 0 31 0
32 -17 12 -16 12 6 17 c8 19 27 12 27 -10z m-720 -55 l0 -29 14 0 c8 0 18 5
21 10 9 15 25 12 25 -6 l0 -15 -42 3 -42 3 -7 32 -6 32 11 4 c18 7 26 -3 26
-34z m700 -45 c0 -2 -11 -4 -25 -4 l-25 0 0 -12 -1 -13 -13 17 -13 17 -20 -5
c-26 -7 -38 10 -18 26 l15 13 18 -17 c25 -22 28 -21 42 17 l11 32 15 -34 c8
-18 14 -35 14 -37z m-335 25 l7 -10 28 6 28 6 6 -9 6 -10 -45 -6 c-49 -8 -65
-3 -65 20 0 16 26 19 35 3z"/>
<path d="M10794 4865 c-9 -23 3 -45 25 -45 l19 0 5 22 c10 37 -36 58 -49 23z"/>
<path d="M11816 4913 c-9 -10 -7 -51 3 -58 5 -3 22 6 37 20 l27 25 -17 5 c-9
3 -22 7 -30 9 -8 3 -17 2 -20 -1z"/>
<path d="M10255 4460 c-4 -6 -7 -90 -6 -187 l0 -176 10 -10 10 -10 16 13 15
13 -2 181 -3 181 -17 3 c-9 2 -19 -2 -23 -8z"/>
<path d="M10481 4424 l-12 -26 17 -26 16 -25 -12 -36 -11 -36 9 -25 10 -26
-14 -39 c-25 -74 -15 -90 54 -80 20 3 100 8 177 10 77 2 146 4 153 5 6 0 19 0
27 1 23 0 83 0 144 -1 18 0 40 5 48 11 l13 12 -5 18 -6 19 20 0 21 0 -12 -19
-12 -19 14 -16 13 -17 17 16 c20 18 34 19 60 3 l20 -12 11 11 12 12 18 -12 18
-11 26 12 27 13 12 -10 11 -9 116 2 c64 2 121 6 126 9 6 4 24 3 40 -2 l30 -9
14 9 13 8 13 -11 13 -10 27 7 c16 4 177 7 358 7 182 0 338 2 348 4 21 7 22 32
1 55 l-16 18 9 53 9 53 14 -1 c8 -1 22 -3 30 -5 l15 -4 0 25 0 25 -22 3 -23 3
-5 22 c-2 12 -6 31 -7 42 l-3 20 -230 -1 c-127 -1 -313 -2 -415 -2 -102 0
-228 -1 -280 -3 -107 -3 -95 -3 -646 5 l-401 6 -12 -26z m1691 -34 c40 4 59 0
54 -9 -3 -4 -17 -6 -31 -3 l-25 4 0 -24 0 -25 25 -11 25 -12 -1 -42 -1 -43 -5
20 c-3 11 -21 34 -39 52 -19 17 -34 39 -34 47 0 8 -9 20 -21 26 l-20 11 12 15
12 14 13 -11 c7 -6 23 -10 36 -9z m-1111 -19 c37 -37 37 -50 -2 -58 l-30 -6 1
-26 c3 -43 1 -51 -16 -51 l-15 0 6 21 7 21 -22 23 -22 24 7 11 7 11 19 -17 19
-17 9 24 9 24 -18 16 c-18 16 -17 29 2 29 5 0 23 -13 39 -29z m355 5 c-3 -14
-3 -32 0 -40 10 -26 32 -18 39 14 l7 30 19 0 19 0 0 -14 c0 -28 -12 -46 -31
-46 l-19 0 0 -40 0 -40 10 0 c6 0 10 -5 10 -12 l0 -12 -12 12 c-18 18 -36 14
-43 -9 l-7 -20 17 -13 18 -13 -17 -6 c-38 -15 -46 14 -19 70 l16 35 -18 34
c-10 19 -22 34 -27 34 -15 0 -8 39 10 49 27 16 35 13 28 -13z m542 6 c2 -7 1
-20 -3 -30 l-6 -17 -19 25 -19 25 -12 -12 c-15 -15 -38 -16 -58 -4 -25 16 -2
27 55 27 l57 -1 5 -13z m-388 -52 l0 -30 30 0 30 0 0 15 c0 19 14 19 29 1 l12
-14 19 5 20 5 0 -32 0 -32 -21 -5 -20 -6 -6 -29 c-3 -16 -15 -33 -25 -39 l-20
-11 -11 11 -11 11 17 0 17 0 0 30 0 30 20 0 20 0 0 19 c0 22 -25 45 -40 36 -5
-3 -10 -17 -10 -30 l0 -24 -16 6 c-8 3 -20 16 -25 29 -11 31 -24 30 -45 -1 -9
-14 -23 -25 -30 -25 l-14 0 0 30 0 30 24 0 24 0 6 25 c9 35 26 31 26 -5z
m-354 -36 c-9 -8 -16 -21 -16 -29 0 -7 -5 -15 -11 -17 -13 -4 -15 -46 -5 -70
l8 -18 -13 0 c-8 0 -20 4 -28 9 l-15 9 12 15 c7 8 10 21 7 29 l-6 15 15 6 16
6 0 26 c0 14 5 25 10 25 6 0 16 12 22 28 l12 27 3 -23 4 -22 -15 -16z m709 25
c0 -8 -10 -15 -23 -17 -12 -2 -27 -13 -33 -25 l-12 -21 -20 25 -19 24 25 3 25
3 5 20 5 19 24 -9 c12 -4 23 -15 23 -22z m95 6 c0 -7 7 -15 15 -19 8 -3 15
-15 15 -26 l0 -20 -15 0 c-8 0 -15 6 -15 14 0 7 -10 20 -22 28 l-23 15 14 17
c14 17 31 13 31 -9z m103 -12 l17 -5 0 -23 0 -23 16 -6 15 -6 -3 -22 -3 -23
-15 0 -15 0 -3 23 c-2 12 -7 22 -12 22 -5 0 -16 14 -25 30 -9 17 -22 30 -30
30 -8 0 -15 6 -15 13 0 23 13 28 34 12 12 -9 29 -18 39 -22z m-787 16 l7 -11
-29 -23 -29 -24 17 -16 16 -17 17 26 c17 26 45 36 45 16 0 -6 -7 -22 -16 -35
l-16 -24 -69 2 c-74 2 -82 6 -46 22 l22 10 -3 23 -3 22 20 0 c11 0 25 9 31 20
12 22 25 26 36 9z m452 -51 l3 -37 -20 -11 c-12 -6 -21 -20 -21 -30 l0 -20
-15 0 -15 0 0 29 0 29 20 5 19 5 -6 37 -6 37 19 -4 19 -3 3 -37z m184 -8 c7
-11 18 -20 25 -20 7 0 13 -7 13 -15 0 -8 -4 -15 -9 -15 -5 0 -14 7 -21 15 -7
8 -21 15 -31 15 l-19 0 0 20 0 20 15 0 c8 0 20 -9 27 -20z m-1081 -30 c5 0 9
-15 9 -34 l0 -34 -20 -5 c-27 -7 -35 10 -11 23 l20 10 -5 15 -6 15 -27 0 -26
0 15 10 c8 5 21 8 28 5 8 -3 18 -5 23 -5z m683 -31 c7 -35 1 -49 -20 -49 l-14
0 0 40 0 40 14 0 14 0 6 -31z"/>
<path d="M12405 3913 c-22 -2 -47 -6 -55 -9 -8 -4 -42 -6 -75 -6 -32 0 -67 -4
-77 -9 -9 -5 -19 -6 -21 -2 -3 5 -56 7 -119 6 -534 -7 -861 -14 -867 -17 -3
-2 -162 -8 -351 -11 -190 -4 -348 -9 -352 -12 -8 -4 -3 -172 6 -180 3 -3 -1
-17 -8 -32 l-14 -26 5 -47 c3 -26 11 -52 18 -58 l13 -10 26 10 c15 5 51 10 80
10 29 0 55 3 59 6 3 4 39 7 79 8 l73 1 3 28 3 27 20 0 19 0 0 -24 0 -24 16 -6
c9 -3 23 -2 32 3 l16 9 24 -9 c13 -5 34 -6 48 -3 l24 6 0 18 c0 28 18 34 22 8
l3 -23 18 -3 c10 -2 27 4 36 12 l18 17 13 -16 c16 -19 30 -19 45 1 l12 17 26
-18 26 -17 13 8 c7 4 25 7 40 6 14 -1 30 2 33 8 l6 10 18 -9 17 -10 13 8 c7 4
23 6 35 4 28 -6 37 6 29 35 -7 29 -29 28 -37 0 l-5 -23 -12 12 -12 12 24 25
c27 29 39 32 39 12 0 -8 8 -16 17 -18 l18 -3 0 -25 0 -25 80 1 c44 1 144 2
222 3 l142 1 7 22 6 21 -18 14 c-21 16 -16 24 12 17 l20 -5 -4 -30 -4 -29 15
-6 c9 -3 22 -2 29 3 15 9 94 13 309 13 l156 -1 13 16 13 15 -18 40 -18 40 13
41 13 40 28 -6 27 -6 6 10 c11 17 -5 39 -35 50 l-30 10 7 26 6 25 -12 15 c-7
8 -15 14 -19 13 -3 -1 -24 -3 -46 -5z m-865 -84 l0 -19 -19 0 c-10 0 -22 -7
-25 -15 l-6 -16 -19 11 c-11 5 -27 10 -35 10 -20 0 -21 -29 -1 -36 14 -6 22
-44 9 -44 -14 0 -54 46 -54 63 0 18 -25 24 -35 7 -3 -5 -1 -17 4 -27 5 -10 12
-25 15 -33 3 -8 12 -23 18 -33 l13 -19 -22 -15 -23 -15 0 -24 c0 -28 -14 -38
-28 -21 l-10 12 8 21 c5 12 13 25 19 29 6 3 11 17 11 31 l0 24 -15 0 -15 0 0
19 c0 11 -13 31 -30 44 -16 14 -30 30 -30 35 l0 10 73 -2 c39 -2 77 1 84 6
l12 9 20 -10 c30 -17 48 -13 54 10 l6 21 10 -7 c6 -3 11 -15 11 -26z m270 17
c0 -25 16 -27 43 -6 30 24 43 25 51 4 l6 -15 -34 -14 c-19 -8 -36 -20 -38 -26
l-4 -12 -28 28 -27 27 5 14 c7 18 26 18 26 0z m210 -35 l0 -38 -29 -22 -30
-23 6 -14 5 -15 18 6 c10 3 21 2 24 -3 l6 -9 -47 -7 c-25 -3 -48 -4 -50 -2
-10 9 30 69 48 73 l20 6 -2 26 c-3 34 10 73 22 66 5 -4 9 -23 9 -44z m-369 22
l38 -18 1 -21 0 -21 24 -11 24 -11 12 14 12 15 19 -11 c10 -5 19 -15 19 -20
l0 -11 -24 6 -25 6 -6 -11 c-4 -5 1 -19 10 -29 l17 -19 22 13 21 14 38 -5 c42
-6 46 -13 18 -30 l-20 -12 -31 10 c-38 14 -47 7 -32 -25 12 -27 7 -36 -20 -36
l-18 0 0 30 0 30 -25 0 c-25 0 -33 -14 -15 -25 6 -3 10 -13 10 -22 l0 -15 -27
5 c-27 5 -87 -3 -128 -18 l-20 -7 13 9 c7 5 14 23 15 39 l2 29 -22 3 -23 3 6
-30 7 -31 -17 0 -16 0 0 18 c0 9 9 32 20 49 l20 33 25 -12 c14 -6 25 -19 25
-28 l0 -17 26 -12 26 -12 15 12 14 12 -31 13 -31 14 6 19 6 19 -20 7 c-11 3
-29 20 -40 38 l-21 32 28 22 c32 27 27 27 73 6z m-703 -72 c17 -32 15 -39 -10
-43 -12 -2 -23 -9 -26 -15 l-4 -13 27 -10 27 -10 13 10 13 11 21 -13 21 -13
15 16 16 15 -26 14 c-30 16 -32 30 -5 30 l21 0 6 -17 c3 -10 15 -28 27 -41
l20 -23 -14 -9 -14 -9 -15 8 c-9 5 -49 7 -88 5 l-73 -4 0 15 c0 8 -4 15 -9 15
-5 0 -11 9 -14 20 l-5 20 -21 0 -21 0 0 16 0 16 13 -10 c32 -26 94 7 66 35
l-12 12 -28 -15 -29 -14 -20 20 c-11 11 -20 26 -20 33 l1 12 10 -17 c13 -23
45 -23 65 1 l16 19 22 -22 c11 -11 27 -31 34 -45z m116 54 c3 -8 12 -15 20
-15 7 0 17 -11 20 -25 3 -13 15 -29 26 -35 11 -6 20 -19 20 -30 0 -10 7 -23
16 -28 l17 -9 -8 -12 -7 -12 -20 17 c-20 19 -108 147 -108 158 0 12 18 6 24
-9z m82 0 c4 -8 12 -15 19 -15 7 0 15 -8 19 -17 3 -10 9 -24 12 -30 l6 -13
-17 0 -17 0 -11 29 c-6 16 -19 32 -30 35 l-19 5 7 10 c9 16 25 13 31 -4z
m1142 -87 c0 -83 -5 -99 -22 -66 -12 24 -13 118 -1 137 14 24 23 -3 23 -71z
m-208 32 l0 -20 15 0 c8 0 15 6 15 14 0 13 20 26 40 26 5 0 10 -10 12 -22 l3
-23 18 -3 17 -3 0 25 0 26 15 0 15 0 0 -20 c0 -11 -7 -23 -15 -26 -8 -4 -15
-12 -15 -19 0 -7 7 -18 15 -25 17 -14 21 -60 5 -60 -6 0 -15 11 -21 24 -6 13
-20 27 -30 29 l-19 5 0 26 0 26 -19 0 -20 0 -3 -27 c-4 -34 -22 -33 -26 2 l-3
25 -15 0 c-14 0 -19 21 -7 33 12 13 23 7 23 -13z m-788 -15 c6 -14 17 -25 25
-25 19 0 16 -37 -4 -44 -10 -3 -25 -9 -33 -12 l-15 -6 13 13 c19 20 14 39 -13
49 l-25 10 0 20 0 20 20 0 20 0 12 -25z"/>
<path d="M10249 3868 c-4 -71 4 -375 11 -382 l9 -9 16 13 15 12 0 170 0 169
-10 20 c-12 21 -40 26 -41 7z"/>
<path d="M12399 3366 c-5 -5 -210 -15 -459 -22 -107 -3 -218 -10 -247 -15 -28
-6 -74 -10 -102 -11 -28 0 -54 -4 -57 -9 l-5 -9 -19 10 c-10 5 -31 8 -47 5
-15 -3 -89 -7 -163 -10 -74 -2 -178 -7 -230 -10 -52 -2 -147 -7 -210 -10 -157
-7 -324 -18 -367 -23 l-13 -2 0 -28 c0 -15 5 -33 11 -39 l11 -11 -15 -43 -15
-44 9 -17 9 -16 -11 -57 -10 -56 12 -16 13 -15 30 7 c17 4 49 8 71 8 22 1 45
6 52 10 7 4 24 5 38 1 14 -3 33 -3 42 2 19 8 42 9 293 19 91 3 183 8 205 10
22 2 81 6 130 9 50 4 131 11 180 16 108 12 205 18 385 26 74 3 151 7 170 10
19 2 109 6 200 9 91 3 171 8 178 10 16 6 15 40 -2 54 -7 6 -16 25 -20 42 l-6
31 -23 -6 c-34 -8 -42 5 -15 26 l23 18 -17 14 c-24 18 -23 29 1 17 10 -6 22
-22 25 -36 8 -30 21 -32 36 -6 5 11 20 21 32 23 l23 3 0 20 0 20 -27 -2 -28
-2 0 50 0 49 -33 0 c-19 0 -36 -2 -38 -4z m17 -47 l7 -11 -29 -23 -28 -22 -28
20 -28 21 9 9 9 9 21 -14 22 -13 10 18 c11 20 25 22 35 6z m-208 -21 c7 -7 12
-23 12 -36 l0 -24 20 -5 c11 -3 20 -12 20 -19 0 -8 6 -14 13 -14 8 0 24 -11
36 -24 l23 -24 -11 -7 -11 -6 -6 15 c-3 9 -13 16 -20 16 -8 0 -17 6 -20 14 -3
8 -16 17 -30 20 l-24 6 0 25 c0 14 -9 33 -19 42 -11 9 -18 20 -15 25 7 11 18
10 32 -4z m82 -23 l0 -25 18 0 c11 0 27 -9 36 -19 l17 -19 -11 -7 -11 -7 -24
26 c-13 14 -28 26 -33 26 -12 0 -24 29 -16 41 10 18 24 9 24 -16z m-543 -15
c-7 -32 0 -60 14 -60 5 0 12 18 15 39 l6 39 22 5 c11 2 37 3 56 1 19 -1 43 -3
54 -3 l18 -1 -5 -15 c-4 -8 4 -35 16 -60 l22 -46 20 5 c11 3 30 6 42 6 l22 0
18 30 c9 17 23 30 30 30 18 0 16 -19 -2 -26 -8 -4 -15 -12 -15 -20 l0 -14 29
0 c31 0 49 -14 31 -25 -5 -3 -10 -13 -10 -21 l0 -15 23 3 c22 4 24 9 12 40
l-7 17 52 -1 51 0 -4 -11 c-2 -7 -15 -12 -28 -12 l-24 0 -3 -27 -3 -26 -25 -6
c-14 -4 -35 -4 -46 0 l-20 6 5 18 5 18 -29 21 -28 21 -10 -18 -10 -19 -33 3
c-18 1 -43 6 -55 10 l-23 6 0 24 0 24 -15 0 -15 0 0 25 0 25 -15 0 -15 0 0
-23 0 -24 -25 -11 -25 -12 14 35 14 34 -13 11 -13 11 -7 -11 c-4 -6 -4 -22 -1
-34 l6 -24 -20 -5 -20 -5 0 -21 0 -21 -14 0 c-23 0 -46 -29 -46 -56 l0 -25 38
7 37 6 -10 -10 c-5 -6 -32 -11 -60 -12 -73 -3 -85 -1 -85 10 l0 10 25 -6 25
-6 0 27 0 26 -44 -6 -44 -7 -11 20 c-16 30 -14 32 17 16 37 -19 52 -18 52 6
l0 20 -13 0 c-8 0 -22 9 -31 19 l-18 19 4 24 3 23 15 0 15 0 0 -25 0 -25 23
-3 23 -3 6 -30 6 -29 18 0 19 0 0 28 0 27 -20 13 c-11 7 -20 21 -20 32 l0 20
14 0 c8 0 16 7 20 15 3 8 11 15 17 15 l12 0 -6 -30z m243 -1 l0 -21 20 -5 c11
-3 20 -9 20 -14 0 -14 -18 -20 -44 -13 l-24 6 -4 34 -4 34 18 0 18 0 0 -21z
m178 -21 c-3 -49 -17 -56 -31 -15 -11 33 -3 57 18 57 l16 0 -3 -42z m-691 4
l-3 -17 -15 4 c-8 3 -32 6 -54 6 -83 3 -71 20 15 22 l61 1 -4 -16z m-308 -15
c7 -13 11 -37 9 -53 l-3 -29 -20 -3 c-11 -2 -26 -5 -34 -8 l-14 -5 10 -10 11
-11 92 -4 c103 -5 110 -7 110 -35 0 -11 8 -23 18 -27 l17 -7 -45 -6 c-25 -3
-56 -2 -69 3 l-24 9 -17 -16 -18 -16 -7 10 c-3 6 -17 11 -31 11 l-24 0 0 25 0
25 -25 0 -25 0 6 -25 6 -25 -16 0 c-20 0 -20 8 0 56 l16 38 -24 17 -23 18 18
7 18 7 10 -10 11 -11 29 15 c32 16 35 23 17 41 l-12 12 -12 -11 c-7 -6 -18 -8
-24 -4 l-11 7 18 18 c25 26 47 24 62 -3z m285 -35 c5 -1 3 -9 -4 -17 l-12 -15
-18 10 c-9 5 -20 6 -24 3 -12 -13 -5 -31 14 -36 11 -3 20 -10 20 -16 l0 -11
-50 0 -50 0 0 10 c0 6 6 10 14 10 22 0 30 19 16 35 -17 21 -30 19 -30 -4 0
-11 -4 -22 -9 -26 -11 -6 -62 45 -56 55 3 5 161 7 189 2z m116 -7 c0 -7 -6
-18 -14 -22 -8 -4 -15 -17 -17 -28 l-4 -20 -28 -3 c-35 -4 -34 -1 11 47 40 43
52 50 52 26z m-562 -25 c13 0 21 -4 17 -9 l-5 -9 -85 3 -85 4 -5 -10 c-10 -15
-25 -10 -25 9 l0 19 83 -4 c45 -1 92 -3 105 -3z m900 -2 c7 -7 12 -21 12 -32
l0 -19 -21 19 -21 19 -10 -18 -9 -18 -18 6 -18 5 -13 -15 c-16 -20 -30 -10
-30 22 l0 26 29 -6 29 -6 12 14 c15 18 42 19 58 3z m-991 -75 c13 -14 23 -34
23 -43 0 -10 7 -21 16 -24 8 -3 12 -10 9 -16 l-6 -10 -25 16 c-13 9 -24 22
-24 30 0 7 -14 24 -30 36 l-31 22 18 8 c26 10 25 10 50 -19z"/>
<path d="M10247 3265 l-16 -15 10 -33 c5 -17 9 -93 8 -167 0 -74 0 -143 0
-153 l1 -18 23 3 22 3 0 195 0 195 -16 3 c-9 2 -24 -4 -32 -13z"/>
<path d="M12413 2815 l-22 -15 -6 11 -7 10 -17 -6 c-9 -4 -59 -8 -111 -10
-136 -4 -274 -14 -355 -25 -38 -5 -99 -12 -135 -15 -36 -2 -85 -6 -110 -9 -25
-2 -110 -7 -190 -10 -80 -4 -188 -11 -240 -16 -52 -5 -147 -12 -210 -15 -63
-4 -118 -9 -124 -12 -10 -7 -36 -9 -236 -18 -189 -9 -199 -14 -160 -90 l20
-39 -15 -16 c-17 -19 -20 -56 -5 -65 l10 -6 -9 -17 c-5 -9 -11 -38 -15 -63
l-7 -46 15 -13 16 -12 17 7 c16 7 80 16 198 28 17 2 50 4 75 5 25 1 51 6 58
11 l14 8 -17 33 c-19 37 -18 41 13 29 l22 -8 0 -31 0 -30 28 0 c16 0 32 3 36
7 4 4 22 6 41 4 19 -1 40 1 46 5 6 3 61 8 121 10 61 2 116 8 122 14 l12 10 12
-12 11 -11 18 9 c10 4 36 9 58 10 22 1 73 4 112 6 40 2 75 7 78 10 4 3 23 4
44 1 l38 -5 7 11 7 10 29 -6 c16 -3 37 -2 47 2 10 4 69 9 132 11 62 2 130 8
150 14 20 5 89 12 152 15 100 5 193 16 267 31 l22 4 0 23 c0 12 -12 33 -26 46
l-25 24 4 19 c3 10 1 18 -4 18 -5 0 -9 9 -9 20 0 25 16 26 29 3 l9 -17 24 11
c12 6 31 14 41 17 l17 5 0 21 0 21 -34 -6 -34 -7 -6 10 c-3 6 -2 13 4 17 5 3
10 24 10 46 l0 39 -18 0 c-10 0 -27 -7 -39 -15z m-210 -69 c21 8 22 -3 1 -24
l-16 -16 22 -18 22 -18 -26 -12 -27 -11 -10 10 -11 11 12 22 12 23 -13 8 c-8
5 -20 9 -26 9 l-13 0 12 26 12 25 16 -21 16 -21 17 7z m-393 -31 l18 16 7 -11
7 -12 -21 -20 -22 -20 -14 12 -13 11 -26 -7 -26 -6 0 -24 0 -24 15 0 c8 0 15
-7 15 -15 0 -8 -7 -15 -15 -15 -8 0 -15 7 -15 16 l0 15 -27 -3 -28 -3 0 -25 0
-25 34 -2 c18 -1 38 -6 44 -12 l11 -11 -12 -12 -12 -12 -11 11 -11 11 -38 -5
-37 -5 -7 11 c-4 6 -16 11 -26 11 l-19 0 -3 22 c-2 13 -10 24 -19 26 l-16 3
-7 -17 -6 -17 15 -17 c23 -25 18 -33 -9 -15 -49 32 -40 72 18 82 l38 6 8 -14
c5 -7 12 -10 17 -6 4 5 3 11 -2 15 -17 12 -49 82 -41 89 4 4 16 2 26 -5 l19
-12 27 12 26 12 13 -17 c17 -23 21 -22 35 13 l12 30 30 -26 31 -25 17 16z
m237 7 l-5 -26 16 -13 17 -13 -15 -10 c-8 -5 -21 -10 -29 -10 l-13 0 5 29 6
28 -11 11 -11 11 -19 -10 -20 -11 16 -17 15 -17 -3 -27 c-3 -27 -16 -51 -16
-29 l0 12 -30 0 -30 0 0 -14 c0 -8 12 -17 26 -20 l26 -7 -5 -20 -5 -19 16 -17
17 -16 -15 6 c-8 4 -22 10 -32 13 -9 3 -18 14 -21 25 -3 10 -13 22 -23 26
l-17 6 -18 -22 -19 -23 -6 16 c-8 20 -24 21 -24 2 0 -7 -6 -19 -14 -25 l-14
-12 -15 30 -15 30 17 15 c22 20 37 20 45 1 3 -8 15 -15 26 -15 l20 0 0 20 0
20 -20 0 -20 0 0 15 0 15 20 0 20 0 0 -15 c0 -8 6 -15 14 -15 8 0 16 7 20 15
l5 15 26 0 25 0 0 15 c0 7 -8 18 -17 24 l-17 9 22 19 23 18 41 2 40 1 -5 -26z
m-650 -42 c12 0 23 6 26 13 l4 12 17 -14 17 -14 24 13 c27 14 59 7 53 -13 -3
-6 -15 -14 -29 -15 -13 -2 -28 -10 -32 -18 -11 -20 -24 -17 -30 6 l-5 20 -22
0 -21 0 3 -22 3 -22 22 -6 22 -5 -7 -13 -8 -12 -33 6 -33 7 -8 21 c-4 12 -15
28 -24 35 l-16 13 11 20 11 20 17 -16 c10 -9 27 -16 38 -16z m-109 -6 l22 -15
0 -30 c0 -16 5 -29 10 -29 12 0 13 -47 1 -54 -4 -3 -13 6 -20 20 -12 28 -31
24 -31 -7 l0 -19 15 0 c8 0 15 -7 15 -15 0 -8 -6 -15 -14 -15 -18 0 -46 38
-46 63 0 9 -7 20 -15 23 -16 7 -21 34 -6 34 5 0 14 -7 21 -15 7 -8 16 -12 21
-9 12 7 11 54 -1 54 -5 0 -10 7 -10 15 0 19 10 19 38 -1z m-410 -32 l4 -12
-17 0 -16 0 3 -27 c4 -33 19 -35 33 -4 11 24 33 28 41 6 4 -8 15 -15 25 -15
l19 0 0 -25 c0 -33 -18 -32 -31 3 l-11 27 -22 -27 c-28 -35 -31 -35 -70 7
l-33 35 -21 0 -20 0 5 20 5 20 33 -6 33 -6 7 12 c8 13 27 9 33 -8z m182 2 l0
-15 -27 3 -28 3 -3 -17 -3 -18 14 0 c18 0 57 -63 57 -91 0 -10 5 -19 10 -19 6
0 10 -7 10 -15 0 -9 11 -21 25 -27 27 -12 35 -34 9 -24 -9 3 -30 6 -47 6 l-31
0 12 12 c7 7 12 20 12 30 l0 18 -20 0 -20 0 0 25 c0 13 -6 28 -13 32 -19 12
-47 60 -47 82 l0 20 23 4 c12 2 32 5 45 6 l22 1 0 -16z m1110 -21 c-1 -10 -9
-28 -20 -41 l-19 -23 -20 13 c-28 17 -26 28 3 28 l24 0 5 20 c6 25 27 27 27 3z
m-1050 -45 c0 -20 37 -67 53 -68 4 0 7 7 7 15 0 8 6 15 14 15 28 0 46 -12 46
-31 0 -11 7 -22 15 -25 20 -8 19 -34 -2 -34 -9 0 -24 -7 -34 -16 l-17 -15 -26
24 c-14 13 -26 32 -26 41 0 9 -6 16 -14 16 -13 0 -66 81 -66 100 0 4 11 5 25
2 l25 -4 0 -20z m-341 -4 c36 -18 32 -34 -9 -34 -32 0 -43 11 -34 34 7 19 4
19 43 0z m139 -70 l22 -15 0 -35 0 -34 -15 0 c-8 0 -15 7 -15 15 0 8 -9 24
-20 35 l-20 20 -25 -6 -25 -6 0 11 c0 8 38 25 70 30 3 1 16 -6 28 -15z m99
-34 c26 -49 26 -51 -5 -43 l-22 5 0 19 c0 10 -4 21 -10 24 -5 3 -10 15 -10 26
l0 21 12 -4 c7 -3 22 -24 35 -48z m-267 1 c-39 -32 -50 -31 -50 5 l0 24 42 0
42 0 -34 -29z"/>
<path d="M10248 2500 c-2 -100 1 -188 5 -196 l8 -14 20 10 19 11 -2 182 -3
182 -22 3 -22 3 -3 -181z"/>
<path d="M12195 2250 c-58 -10 -234 -28 -350 -35 -44 -3 -116 -10 -160 -15
-44 -5 -132 -15 -195 -21 -63 -6 -119 -14 -125 -19 -5 -4 -50 -8 -100 -9 -49
-1 -117 -6 -150 -11 -33 -5 -91 -11 -130 -14 -88 -7 -180 -16 -225 -22 -19 -3
-87 -8 -150 -11 -63 -3 -121 -10 -127 -15 -18 -14 -16 -63 2 -78 19 -16 19
-49 0 -74 l-15 -20 15 -22 c18 -28 19 -67 3 -93 -15 -25 -4 -51 23 -51 l22 0
-6 34 -5 34 21 6 c12 3 37 6 55 6 l34 0 -5 -12 -4 -13 -31 0 c-34 0 -55 -14
-44 -31 l7 -11 58 5 57 4 0 24 c0 30 18 31 22 2 l3 -23 30 2 c17 1 50 4 75 8
57 8 104 12 205 20 44 3 92 12 107 19 l26 14 10 -10 9 -9 44 10 c24 6 59 11
78 11 l33 0 -6 25 -6 25 10 0 c5 0 10 -9 10 -19 0 -26 17 -36 35 -21 21 18 18
41 -5 47 l-20 5 0 34 0 33 16 9 16 9 -4 22 c-5 34 -21 30 -43 -12 -11 -21 -27
-43 -36 -47 l-16 -9 -32 12 -31 11 0 18 c0 18 -33 33 -50 23 -5 -3 -10 -15
-10 -26 0 -29 -16 -23 -39 17 -28 47 -30 45 47 42 l67 -3 0 -23 c1 -23 19 -42
43 -42 6 0 12 9 12 20 l0 20 -20 0 c-22 0 -26 20 -8 38 l12 12 16 -15 17 -15
17 6 c9 3 16 12 16 19 l0 12 -51 6 c-54 7 -67 12 -55 24 4 4 15 2 26 -5 l19
-11 6 19 c7 22 30 27 40 9 l7 -10 18 16 18 16 53 -3 52 -3 4 -11 c2 -6 -5 -14
-17 -17 l-20 -5 0 -20 c0 -12 -4 -24 -10 -27 -5 -3 -10 -19 -10 -34 0 -16 -9
-40 -21 -55 -21 -27 -18 -46 8 -46 l15 0 -12 -15 c-6 -8 -9 -19 -5 -25 8 -12
104 -13 124 -1 l14 9 -13 32 -13 31 11 11 c5 5 15 7 22 3 l11 -7 -6 -39 -7
-39 21 0 c28 0 35 21 24 67 l-9 38 -34 2 c-19 1 -45 -5 -57 -13 -30 -19 -43
-18 -43 5 0 28 24 42 67 40 21 -2 44 1 51 4 l11 8 32 -29 32 -29 -16 -23 -16
-23 10 -19 c5 -10 14 -16 18 -13 5 3 42 7 82 9 l74 3 3 22 3 21 -15 6 c-20 8
-21 34 -1 34 8 0 15 -7 15 -15 l0 -15 20 0 20 0 0 -20 0 -20 19 0 c11 0 23 5
26 10 4 6 16 9 28 8 12 -2 23 2 25 7 l2 10 -47 3 -48 3 -24 34 c-26 39 -33 42
-51 20 -17 -21 -40 -19 -40 4 0 10 -11 30 -25 45 l-25 27 0 33 0 33 25 11 24
11 7 -11 7 -11 -16 -12 c-23 -16 -21 -35 2 -35 23 0 36 -16 21 -25 -13 -8 -13
-35 0 -35 15 0 50 38 50 55 0 8 -7 15 -15 15 -22 0 -18 29 8 51 24 20 57 25
57 9 0 -5 9 -10 19 -10 10 0 21 -7 25 -15 l5 -15 26 0 25 0 0 15 c0 22 27 18
33 -5 l5 -20 20 0 c32 0 36 18 10 40 l-23 19 17 6 c9 4 25 5 35 3 l18 -4 -3
-27 -3 -27 14 -6 c7 -2 26 0 42 6 l28 11 -21 15 c-12 8 -22 22 -22 30 l0 14
23 0 c13 0 29 6 35 12 l12 12 21 -12 20 -13 29 17 29 18 16 -14 c19 -15 24
-12 27 21 l3 24 -25 2 c-14 0 -47 -3 -75 -7z m-575 -110 l15 -9 -11 -18 c-6
-10 -18 -19 -27 -21 l-15 -3 -7 22 -7 21 13 9 c18 11 21 11 39 -1z m-90 -20
c0 -10 -7 -23 -16 -28 l-16 -9 4 -19 3 -19 23 23 c31 31 42 28 42 -13 l0 -35
-12 0 c-7 1 -24 7 -38 15 l-25 13 -12 -10 c-14 -11 -43 -4 -43 11 0 5 9 13 20
16 l21 7 -3 18 -3 19 20 15 c27 21 35 20 35 -4z m-531 -47 l11 14 70 0 70 0 0
-13 0 -14 -32 -2 c-18 0 -46 0 -61 1 l-29 3 -14 -19 c-7 -10 -14 -24 -14 -31
l0 -14 31 7 31 7 -4 -24 -3 -23 -15 4 c-8 2 -28 3 -43 2 l-29 -1 7 29 6 29
-21 20 -22 20 7 12 7 11 18 -16 17 -16 12 14z m-85 -17 l18 -6 -12 -15 -12
-15 -19 10 c-10 6 -30 8 -44 4 l-25 -6 0 14 c0 17 41 36 60 27 8 -4 23 -10 34
-13z m726 4 l15 -9 -13 -21 -12 -20 10 0 c17 0 70 -43 70 -56 0 -6 7 -14 15
-18 32 -12 12 -23 -40 -22 -63 0 -63 1 -32 27 l22 19 -22 6 c-13 3 -23 10 -23
14 0 5 -7 16 -16 25 l-16 16 6 24 c7 27 13 30 36 15z m-880 -71 c0 -34 15 -37
39 -8 l17 21 32 -7 32 -7 0 -24 0 -24 -15 0 c-7 0 -18 7 -23 17 l-10 16 -30
-22 -31 -21 -6 10 -6 10 -52 -2 -52 -3 -3 38 -3 37 10 0 c6 0 11 -8 11 -18 l0
-19 25 -11 c35 -16 35 -16 35 16 0 16 3 32 6 35 12 12 24 -4 24 -34z m-170 12
c0 -11 5 -23 10 -26 6 -3 10 -13 10 -21 l0 -14 -20 0 -20 0 0 24 c0 14 -4 28
-10 31 -17 10 -11 25 10 25 l20 0 0 -19z m380 -107 c0 -3 -16 -3 -36 1 l-36 6
-13 -17 -13 -18 -16 13 c-22 18 -20 31 4 31 11 0 20 4 20 8 0 5 10 14 23 19
l22 11 23 -24 c12 -13 22 -26 22 -30z m120 39 c21 5 28 -7 10 -18 -19 -12 -10
-33 18 -43 l27 -9 -53 -4 c-56 -4 -78 5 -42 16 26 8 20 31 -6 28 -32 -4 -64 7
-64 22 l0 14 33 3 c17 2 38 -1 44 -6 7 -4 22 -6 33 -3z m-367 -29 c17 3 46 3
64 0 l33 -6 0 -19 c0 -10 -5 -21 -10 -24 l-10 -6 -11 28 -11 28 -17 -21 -17
-21 -17 11 -18 11 -10 -17 -9 -16 -19 5 -18 5 -10 32 -10 33 29 -15 29 -14 32
6z"/>
<path d="M11805 2116 l-20 -15 23 -1 23 0 -3 -17 -3 -18 -23 -3 c-26 -4 -29
-27 -5 -37 l18 -6 17 20 c19 25 34 27 42 6 7 -19 31 -19 61 1 l25 16 0 24 0
24 -15 0 -15 0 0 -19 c0 -25 -11 -32 -38 -24 l-22 5 0 19 0 19 -19 0 c-11 0
-21 5 -23 10 l-3 11 -20 -15z"/>
<path d="M10673 1308 c-2 -5 7 -23 21 -41 15 -19 26 -41 26 -50 l0 -17 19 0
20 0 7 22 6 21 -18 14 -18 13 12 12 13 13 17 -12 c9 -6 16 -16 15 -22 -2 -6
-4 -17 -5 -23 l-3 -13 28 -3 27 -3 6 15 c3 9 3 27 0 40 l-6 25 -22 7 c-30 9
-139 11 -145 2z"/>
<path d="M4260 9270 c-218 -39 -289 -62 -485 -156 l-100 -47 -120 -86 -120
-86 -111 -110 -111 -110 -81 -123 c-45 -68 -82 -128 -82 -134 0 -6 -7 -19 -16
-29 -28 -31 -103 -229 -136 -359 l-32 -125 0 -245 0 -245 22 -105 c72 -333
241 -628 495 -863 91 -83 120 -105 267 -204 199 -133 503 -230 776 -249 l89
-6 144 21 c152 23 263 49 343 82 26 10 72 28 101 40 183 74 438 267 582 443
22 27 52 63 67 80 254 302 393 861 319 1286 -101 574 -568 1116 -1101 1279
-63 19 -88 24 -256 56 l-81 15 -139 -1 -139 -1 -95 -18z m345 -237 c44 -3 86
-10 92 -15 l13 -10 26 6 26 7 14 -12 c8 -6 37 -13 66 -15 77 -6 136 -29 208
-84 l65 -50 52 -15 53 -15 9 -19 c6 -10 21 -21 34 -24 l23 -6 28 -45 28 -44
26 -5 27 -6 40 -47 c22 -25 58 -65 80 -88 22 -22 48 -53 58 -68 l17 -28 21 0
21 0 -6 -24 -6 -25 21 -58 c12 -32 27 -65 35 -73 7 -8 17 -35 23 -59 9 -41 23
-60 46 -61 6 0 20 -9 32 -19 l22 -18 7 -54 c3 -30 13 -75 21 -102 l15 -47 -6
-32 c-3 -17 -1 -49 5 -72 10 -34 15 -195 10 -312 l-1 -31 -25 -27 -26 -28 7
-20 c3 -11 2 -30 -3 -42 -21 -46 -35 -93 -44 -145 -5 -29 -14 -61 -18 -70 -5
-9 -7 -28 -4 -43 l5 -26 -31 -23 c-17 -12 -31 -31 -31 -41 0 -23 -43 -101 -76
-141 -13 -16 -24 -34 -24 -41 0 -18 -85 -106 -102 -106 -9 0 -21 -13 -28 -29
l-12 -29 -44 -17 -45 -17 -11 -24 c-6 -13 -20 -26 -32 -30 -23 -6 -116 -102
-116 -119 0 -16 -51 -42 -98 -50 l-43 -7 -28 -24 c-16 -13 -34 -24 -40 -24 -5
0 -15 -9 -22 -21 l-11 -21 -32 6 -32 6 -19 -15 c-11 -8 -32 -15 -47 -15 -15 0
-30 -5 -33 -11 -4 -6 -14 -8 -22 -5 -9 4 -22 1 -29 -5 -8 -6 -21 -9 -29 -5 -8
3 -39 1 -68 -5 -74 -15 -253 -20 -312 -9 -27 5 -90 14 -140 21 l-90 12 -20 17
c-11 10 -36 20 -55 23 -56 9 -92 26 -97 48 -6 20 -50 49 -77 49 -9 0 -40 11
-71 24 l-55 25 0 16 c0 8 -11 20 -24 26 -13 6 -31 26 -39 45 l-17 34 -24 0
c-14 0 -31 6 -38 13 -7 7 -25 20 -40 30 -16 9 -39 39 -53 66 l-24 49 -31 7
-31 7 -11 26 c-5 15 -17 42 -26 61 l-16 33 -33 16 -33 16 0 23 c0 13 -7 26
-15 29 l-15 6 0 55 0 55 -15 -6 -14 -5 -16 22 -15 21 0 43 c0 23 -5 45 -11 48
-6 4 -8 14 -4 22 l5 16 -20 35 -21 35 6 27 6 28 -10 7 c-6 3 -11 26 -11 50 0
24 -5 47 -11 50 l-10 7 6 27 6 27 -17 60 c-8 32 -15 66 -13 74 1 8 3 71 3 140
l2 125 32 32 32 32 0 29 c0 35 14 80 48 151 14 30 26 66 26 79 l1 25 27 16
c14 9 38 31 53 48 l26 32 1 32 1 32 49 51 c26 27 48 55 48 62 0 13 98 136 113
143 5 2 23 16 41 31 18 16 44 32 58 35 l26 7 6 21 5 22 46 20 c26 11 54 28 63
38 19 22 76 47 104 47 10 0 21 7 24 15 4 8 17 15 29 15 13 0 26 4 29 9 3 5 15
7 26 4 l21 -6 18 17 19 17 56 6 c31 3 59 10 62 14 3 5 21 9 40 9 20 0 45 5 57
12 l22 12 73 -2 c39 -1 82 3 95 8 12 5 29 6 37 3 8 -3 51 -8 95 -10z"/>
<path d="M3758 1153 c-43 -2 -78 -8 -78 -13 l0 -9 -65 6 -65 6 -13 -11 -13
-11 -103 -3 -103 -2 -5 -13 c-3 -7 -13 -13 -23 -13 -21 0 -124 -51 -160 -79
l-25 -20 12 -12 c6 -6 49 -15 95 -20 l83 -9 1645 0 1645 1 99 8 c54 5 103 14
108 19 l10 10 -23 13 c-13 8 -87 26 -164 40 -77 15 -158 34 -180 43 l-40 15
-73 1 -73 0 -32 16 -31 17 -14 -22 c-16 -23 -42 -27 -59 -10 l-10 10 -87 1
c-47 0 -89 4 -91 8 -3 4 -101 8 -217 7 l-213 0 -17 -11 -16 -10 -15 13 -15 12
-7 -11 c-8 -13 -62 -13 -70 1 l-7 10 -17 -15 -17 -16 -10 9 c-11 11 -106 22
-199 24 l-70 0 -22 -11 -21 -12 -141 5 -142 5 -19 -13 -20 -12 -20 13 c-24 15
-62 16 -77 1 l-11 -11 -6 11 -7 11 -104 0 -104 0 -7 11 -7 12 -89 -5 -90 -6
-11 -11 c-13 -13 -64 -15 -71 -2 l-6 9 -62 -5 -61 -6 -11 15 c-14 19 -67 25
-168 21z"/>
</g>
</svg>
