<svg xmlns="http://www.w3.org/2000/svg" width="1150" height="580" viewBox="25 25 1150 580" style="margin: auto; position: absolute; top: 0; left: 0; right: 0; bottom: 0;">
<defs>
<linearGradient id="bg" x1="0%" y1="0%" x2="100%" y2="100%">
<stop offset="0%" stop-color="#16161a"/>
<stop offset="100%" stop-color="#0a0a0d"/>
</linearGradient>
<linearGradient id="g" x1="0%" y1="0%" x2="100%" y2="100%">
<stop offset="0%" stop-color="#FFD700"/>
<stop offset="100%" stop-color="#D4AF37"/>
</linearGradient>
<linearGradient id="shimmer" x1="0%" y1="0%" x2="100%" y2="0%">
<stop offset="0%" stop-color="#000000" stop-opacity="0"/>
<stop offset="50%" stop-color="#000000" stop-opacity="0.4"/>
<stop offset="100%" stop-color="#000000" stop-opacity="0"/>
</linearGradient>
<filter id="glow">
<feGaussianBlur stdDeviation="3" result="blur"/>
<feMerge>
<feMergeNode in="blur"/>
<feMergeNode in="SourceGraphic"/>
</feMerge>
</filter>
<clipPath id="roundCorner">
<rect x="25" y="25" width="1150" height="580" rx="24" ry="24"/>
</clipPath>
<style>
.f { font-family: system-ui, -apple-system, "PingFang SC", "Microsoft YaHei", sans-serif; }
@keyframes fadeIn { from { opacity: 0; transform: translateY(10px); } to { opacity: 1; transform: translateY(0); } }
.anim { animation: fadeIn 0.6s cubic-bezier(0.16, 1, 0.3, 1) forwards; }
.d1 { animation-delay: 0.1s; opacity: 0; }
.d2 { animation-delay: 0.2s; opacity: 0; }
.d3 { animation-delay: 0.3s; opacity: 0; }
</style>
</defs>
<g clip-path="url(#roundCorner)">
<rect x="25" y="25" width="1150" height="580" fill="url(#bg)"/>
<rect x="50" y="50" width="1100" height="530" rx="20" fill="none" stroke="url(#g)" stroke-width="1.5" opacity="0.15"/>
<g class="f" fill="#FFFFFF">
<text x="90" y="110" font-size="28" font-weight="700" fill="url(#g)" letter-spacing="1">VPS Remaining Value</text>
<g opacity="0.4">
<path d="M8 0C3.58 0 0 3.58 0 8c0 3.54 2.29 6.53 5.47 7.59.4.07.55-.17.55-.38 0-.19-.01-.82-.01-1.49-2.01.37-2.53-.49-2.69-.94-.09-.23-.48-.94-.82-1.13-.28-.15-.68-.52-.01-.53.63-.01 1.08.58 1.23.82.72 1.21 1.87.87 2.33.66.07-.52.28-.87.51-1.07-1.78-.2-3.64-.89-3.64-3.95 0-.87.31-1.59.82-2.15-.08-.2-.36-1.02.08-2.12 0 0 .67-.21 2.2.82.64-.18 1.32-.27 2-.27.68 0 1.36.09 2 .27 1.53-1.04 2.2-.82 2.2-.82.44 1.1.16 1.92.08 2.12.51.56.82 1.27.82 2.15 0 3.07-1.87 3.75-3.65 3.95.29.25.54.73.54 1.48 0 1.07-.01 1.93-.01 2.2 0 .21.15.46.55.38A8.013 8.013 0 0016 8c0-4.42-3.58-8-8-8z" transform="translate(854, 68)" fill="#FFFFFF"/>
<text x="1110" y="81" font-size="14" fill="#FFFFFF" text-anchor="end">YoungYannick/vps-remaining-value</text>
</g>
<text x="1110" y="110" font-size="15" opacity="0.4" text-anchor="end">汇率: 1 USD = 6.8000 CNY   |   交易日期: 2026-07-01</text>
<line x1="50" y1="145" x2="1150" y2="145" stroke="#FFFFFF" opacity="0.08"/>
<g class="anim d1">
<text x="90" y="280" font-size="16" fill="#FFFFFF" opacity="0.6">剩余价值 (CNY)</text>
<text x="90" y="350" font-size="60" font-weight="700" fill="url(#g)">6409.499</text>
</g><defs>
<linearGradient id="symWave" x1="0%" y1="0%" x2="0%" y2="100%">
<stop offset="0%" stop-color="#4ade80" stop-opacity="0.3"/>
<stop offset="50%" stop-color="#4ade80" stop-opacity="1"/>
<stop offset="100%" stop-color="#4ade80" stop-opacity="0.3"/>
<animate attributeName="y1" from="-100%" to="100%" dur="2.5s" repeatCount="indefinite"/>
<animate attributeName="y2" from="0%" to="200%" dur="2.5s" repeatCount="indefinite"/>
</linearGradient>
</defs>
<line x1="416" y1="190" x2="416" y2="435" stroke="#FFFFFF" opacity="0.08"/>
<g class="anim d2">
<text x="456" y="210" font-size="16" opacity="0.6">交易金额 (CNY)</text>
<text x="456" y="280" font-size="60" font-weight="700" fill="url(#g)">5999.000</text>
<text x="456" y="310" font-size="14" opacity="0.4">溢价金额 (CNY)</text>
<text x="456" y="340" font-size="22" font-weight="600" fill="#4ade80" dominant-baseline="central"><tspan fill="url(#symWave)">⤵ </tspan> 410.499</text>
<text x="456" y="390" font-size="14" opacity="0.4">溢价幅度</text>
<text x="456" y="420" font-size="22" font-weight="600" fill="#4ade80" dominant-baseline="central"><tspan fill="url(#symWave)">⤵ </tspan> 6.405%</text>
</g><line x1="793" y1="190" x2="793" y2="435" stroke="#FFFFFF" opacity="0.08"/>
<g class="anim d3">
<text x="833" y="205" font-size="14" opacity="0.4">续费金额</text>
<text x="833" y="240" font-size="22" font-weight="600" dominant-baseline="central">1009.900 USD/月</text>
<text x="833" y="310" font-size="14" opacity="0.4">剩余天数</text>
<text x="833" y="340" font-size="22" font-weight="600" dominant-baseline="central">28 / 30 天</text>
<text x="833" y="390" font-size="14" opacity="0.4">到期时间</text>
<text x="833" y="420" font-size="22" font-weight="600" dominant-baseline="central">2026-07-29</text>
</g>
<line x1="50" y1="480" x2="1150" y2="480" stroke="#FFFFFF" opacity="0.08"/>
<text x="90" y="525" font-size="16" opacity="0.6">剩余比例</text>
<text x="1110" y="525" font-size="16" font-weight="700" fill="url(#g)" text-anchor="end" dominant-baseline="central">93.333%</text>
<rect x="90" y="545" width="1020" height="8" rx="4" fill="#202026"/>
<rect x="90" y="545" width="951.9999999999999" height="8" rx="4" fill="url(#g)">
<animate attributeName="width" from="0" to="951.9999999999999" dur="1.2s" fill="freeze" calcMode="spline" keyTimes="0; 1" keySplines="0.16 1 0.3 1"/>
</rect>
<clipPath id="barClip">
<rect x="90" y="545" width="951.9999999999999" height="8" rx="4"/>
</clipPath>
<g clip-path="url(#barClip)">
<rect x="-110" y="545" width="200" height="8" fill="url(#shimmer)">
<animate attributeName="x" from="-110" to="1042" dur="3.5s" begin="1.5s" repeatCount="indefinite"/>
</rect>
</g>
</g>
</g> </svg>